<?xml version="1.0" encoding="UTF-8"?>
<!DOCTYPE svg PUBLIC "-//W3C//DTD SVG 1.1//EN" "http://www.w3.org/Graphics/SVG/1.1/DTD/svg11.dtd">
<!-- Creator: CorelDRAW 2021 (64 Bit) -->
<svg xmlns="http://www.w3.org/2000/svg" xml:space="preserve" width="29.7cm" height="21cm" version="1.1" style="shape-rendering:geometricPrecision; text-rendering:geometricPrecision; image-rendering:optimizeQuality; fill-rule:evenodd; clip-rule:evenodd"
viewBox="0 0 29700 21000"
 xmlns:xlink="http://www.w3.org/1999/xlink"
 xmlns:xodm="http://www.corel.com/coreldraw/odm/2003">
 <defs>
  <style type="text/css">
   <![CDATA[
    .fil0 {fill:#E9EFF3}
    .fil1 {fill:#E9EFF3;fill-rule:nonzero}
   ]]>
  </style>
 </defs>
 <g id="Camada_x0020_1">
  <metadata id="CorelCorpID_0Corel-Layer"/>
  <g id="_1796719105056">
   <path class="fil0" d="M3170.9 7450.3c1169,-167.78 2115.13,665.67 2245.13,1657.98 155.16,1184.26 -640.36,2105.5 -1643.21,2252.81 -1156.66,169.92 -2096.41,-690.43 -2252.94,-1656.5 -187.57,-1157.62 673.37,-2113.97 1651.02,-2254.29zm57.55 4387.93c871.17,110.41 1255.51,-249.15 1693.29,-434.33 83.24,37.54 195.71,149.67 258.32,200.13 95.24,76.77 169.09,136.87 280.45,205.03l-39 189.06c88.77,113.23 473.62,426.61 614.24,565.54l1195.01 1244.24c53.39,66.72 202.62,246.77 323.58,275.92 382.79,92.25 652.08,-314.6 478.36,-617.74l-1820.63 -1810.06c-226.08,-249.72 -21.4,-192.52 -395.95,-165.11 -4.49,-4.07 -414.46,-445.43 -418.76,-527.28 -5.67,-107.92 786.26,-907.09 399.66,-2278.21 -576.64,-2045.17 -3333.43,-2411.08 -4452.1,-481.38 -357.26,616.29 -385.49,1270.06 -188.47,1975.68 252.11,902.91 1179.01,1545.34 2072,1658.51z"/>
   <path class="fil0" d="M18443.13 8097.62c1216.91,-72.56 2455.8,-34.48 2524.42,1513.6 28.41,641.2 -239.89,1158.48 -607.53,1421.18 -430.26,307.44 -1058.45,309.68 -1698.23,289.27l-26.09 1038.18c1310.22,-53.23 2018.17,14.79 2826.19,-755.57 312.01,-297.47 501.66,-559.81 674.46,-1090.04 147.93,-453.95 151.71,-1051.51 37.46,-1521.63 -236.45,-972.97 -809.32,-1527.12 -1717.65,-1807.76 -528.29,-163.23 -1029.42,-152.07 -1621.19,-149.69 -534.7,2.15 -1159.46,-30.39 -1675.81,-7.92l-4.2 5327.6c67.6,6.47 1167.6,23.17 1286.31,-20.24l1.86 -4236.98zm-2943.24 -390.03c186.57,-679.12 -949.21,-1151.87 -1205.36,-340.08 -252.73,800.99 993.94,1109.65 1205.36,340.08zm-1203.63 4649.75l1238.81 -9.8c-10.61,-476.4 50.22,-3599.71 -26.36,-3745.19 -69.45,-79.64 -1099.33,-45.35 -1216.94,-29.07l4.49 3784.06zm11311.5 -3624.46c41.38,-56.25 18.72,-32.97 71.11,-65.57 38.25,44.27 766.29,1618.47 729.51,1782.46l-1144.49 23.17c-140.33,155.76 -390.16,714.36 -458.51,983.73l2090.33 -22.21c126.05,184.19 326.27,712.59 405.49,921.82l1362.96 -2.5 -610.22 -1307.48c-562.78,-1296.55 -1299.91,-2793.12 -1805.32,-4011.99l-1169.48 -14.96c-90.22,107.5 -237.12,529.97 -297.54,672.52l-838.55 2018.13c-193.68,459.16 -377.65,869.52 -571.02,1333.99 -183.34,440.41 -434.69,910.38 -587.27,1319.8l1257.4 -19.59 1565.6 -3611.32zm-13475.56 -315.88c91.92,-113.33 470.57,-819.84 497.83,-963.21l-663.44 -317.4c-999.08,-377.67 -3033.76,-387.72 -3431.53,958.71 -162.37,549.64 0.05,1152.44 297.39,1465.73 624.27,657.76 2537.96,542.28 2633.71,1220.29 94.03,665.77 -816.05,623.44 -1302.33,543.89 -662.98,-108.45 -859.85,-321.19 -1347.75,-564.79 -94.12,110.6 -516.74,834.76 -547.29,955.41 685.28,539.41 2040.82,839.82 3114.22,605.72 1384.3,-301.89 1654.44,-1555.45 1223.26,-2300.96 -524.51,-906.9 -2108.16,-852.26 -2644.43,-1236.29 -260.71,-186.7 -448.43,-903.5 724.53,-845.41 700.53,34.69 1052.22,346.89 1445.83,478.31z"/>
   <path class="fil1" d="M8680.15 13629.06l149.99 -14.82c9.04,49.93 27.12,86.45 54.6,109.92 27.48,23.46 64.54,35.11 111.16,35.11 49.29,0 86.52,-10.41 111.51,-31.23 25,-20.82 37.6,-45.17 37.6,-73.04 0,-18 -5.33,-33.17 -15.79,-45.87 -10.46,-12.53 -28.89,-23.47 -55.14,-32.64 -17.91,-6.36 -58.67,-17.29 -122.5,-33.17 -82.08,-20.47 -139.7,-45.52 -172.86,-75.34 -46.62,-41.81 -69.85,-92.8 -69.85,-152.96 0,-38.64 11,-74.98 32.8,-108.68 21.99,-33.7 53.54,-59.28 94.85,-76.92 41.31,-17.65 90.95,-26.47 149.46,-26.47 95.2,0 166.99,21 215.05,63.16 48.21,42.17 73.39,98.27 75.87,168.67l-154.23 5.29c-6.56,-39.16 -20.57,-67.22 -42.03,-84.33 -21.45,-17.11 -53.72,-25.76 -96.61,-25.76 -44.33,0 -79.08,9.18 -104.08,27.52 -16.13,11.82 -24.29,27.53 -24.29,47.29 0,17.99 7.63,33.34 22.87,46.04 19.33,16.41 66.32,33.35 140.95,50.99 74.64,17.47 129.78,35.82 165.41,54.52 35.81,18.88 63.83,44.46 84.04,77.1 20.2,32.64 30.31,72.86 30.31,120.67 0,43.41 -12.06,84.16 -36.34,122.09 -24.29,37.94 -58.51,66.16 -102.83,84.51 -44.33,18.53 -99.63,27.7 -165.76,27.7 -96.27,0 -170.2,-22.05 -221.79,-66.34 -51.59,-44.1 -82.26,-108.5 -92.37,-193.01z"/>
   <path id="_1" class="fil1" d="M9429.02 13251.15l0 -134.44 145.73 0 0 134.44 -145.73 0zm0 623.5l0 -549.4 145.73 0 0 549.4 -145.73 0z"/>
   <path id="_2" class="fil1" d="M9672.44 13720.1l146.79 -22.23c6.2,28.05 18.79,49.4 37.94,63.87 18.97,14.64 45.73,21.87 79.95,21.87 37.76,0 66.13,-6.88 85.28,-20.64 12.77,-9.7 19.15,-22.76 19.15,-38.99 0,-10.94 -3.55,-20.11 -10.46,-27.35 -7.27,-6.88 -23.58,-13.4 -48.76,-19.23 -117.89,-25.93 -192.53,-49.57 -224.09,-70.92 -43.79,-29.82 -65.59,-71.1 -65.59,-123.85 0,-47.82 18.97,-87.87 56.73,-120.33 37.76,-32.46 96.27,-48.69 175.51,-48.69 75.53,0 131.73,12.35 168.43,36.87 36.69,24.7 62.05,61.05 75.87,109.21l-137.22 25.41c-5.85,-21.53 -17.19,-38.11 -33.68,-49.58 -16.49,-11.47 -40.07,-17.11 -70.74,-17.11 -38.64,0 -66.31,5.29 -83.15,16.05 -11.16,7.59 -16.66,17.47 -16.66,29.46 0,10.41 4.78,19.24 14.54,26.47 13.3,9.7 58.86,23.29 136.86,40.93 78.01,17.64 132.44,39.17 163.28,64.75 30.67,25.76 45.92,61.93 45.92,108.15 0,50.28 -21.1,93.68 -63.47,129.85 -42.19,36.17 -104.78,54.34 -187.75,54.34 -75.16,0 -134.73,-15.17 -178.7,-45.34 -43.79,-30.17 -72.51,-71.1 -85.98,-122.97z"/>
   <path id="_3" class="fil1" d="M10568.27 13325.25l0 115.39 -100 0 0 222.47c0,45.17 0.89,71.46 2.85,78.87 1.95,7.41 6.2,13.58 13.11,18.52 6.74,4.76 14.89,7.23 24.64,7.23 13.65,0 33.16,-4.58 58.86,-13.93l12.23 112.91c-33.86,14.47 -72.15,21.7 -115.05,21.7 -26.24,0 -49.83,-4.41 -70.92,-13.23 -21.1,-8.82 -36.52,-20.29 -46.27,-34.23 -9.93,-14.11 -16.66,-32.99 -20.56,-56.98 -3.02,-16.94 -4.61,-51.17 -4.61,-102.86l0 -240.47 -67.02 0 0 -115.39 67.02 0 0 -109.03 145.72 -85.74 0 194.77 100 0z"/>
   <path id="_4" class="fil1" d="M10989.5 13701.04l145.72 24.35c-18.61,53.11 -48.22,93.51 -88.47,121.38 -40.41,27.7 -90.94,41.64 -151.4,41.64 -95.9,0 -167,-31.23 -212.92,-93.68 -36.34,-50.11 -54.61,-113.27 -54.61,-189.66 0,-91.04 23.94,-162.49 71.63,-214.01 47.69,-51.69 108.15,-77.45 181.19,-77.45 81.91,0 146.62,26.99 194.13,80.98 47.34,53.99 70.03,136.73 67.9,248.23l-364.86 0c1.07,43.05 12.77,76.57 35.28,100.57 22.34,23.99 50.36,35.99 83.69,35.99 22.87,0 42.01,-6.18 57.44,-18.53 15.59,-12.35 27.3,-32.28 35.28,-59.81zm8.51 -147.14c-1.07,-42.16 -11.88,-74.27 -32.63,-96.15 -20.74,-22.05 -45.91,-32.99 -75.7,-32.99 -31.73,0 -57.97,11.64 -78.72,34.75 -20.74,23.12 -30.84,54.7 -30.49,94.39l217.54 0z"/>
   <path id="_5" class="fil1" d="M11251.34 13325.25l134.03 0 0 74.98c48.05,-57.69 105.31,-86.62 171.79,-86.62 35.29,0 65.95,7.23 91.84,21.7 26.07,14.47 47.34,36.34 63.82,65.63 24.29,-29.29 50.53,-51.16 78.54,-65.63 28.01,-14.47 57.97,-21.7 89.88,-21.7 40.43,0 74.65,8.11 102.83,24.52 28.02,16.41 48.93,40.4 62.77,72.16 10.09,23.29 15.06,61.22 15.06,113.62l0 350.74 -145.73 0 0 -313.51c0,-54.52 -4.96,-89.63 -15.07,-105.33 -13.48,-20.64 -34.4,-31.05 -62.4,-31.05 -20.39,0 -39.71,6.17 -57.8,18.52 -17.91,12.53 -31.02,30.7 -39,54.52 -7.98,23.99 -11.88,61.75 -11.88,113.44l0 263.41 -145.73 0 0 -300.63c0,-53.29 -2.66,-87.87 -7.8,-103.21 -5.15,-15.53 -13.12,-27.17 -24.11,-34.76 -10.82,-7.59 -25.71,-11.29 -44.32,-11.29 -22.52,0 -42.73,6 -60.64,17.99 -18.07,12.18 -30.85,29.47 -38.64,52.23 -7.8,22.76 -11.7,60.51 -11.7,113.09l0 266.58 -145.74 0 0 -549.4z"/>
   <path id="_6" class="fil1" d="M12316.31 13494.62l-131.9 -23.29c14.89,-53.63 40.6,-93.33 76.94,-119.08 36.35,-25.76 90.42,-38.64 162.04,-38.64 65.06,0 113.64,7.58 145.55,22.93 31.74,15.35 54.26,34.76 67.2,58.4 12.94,23.64 19.5,66.87 19.5,130.03l-2.13 169.37c0,48.17 2.3,83.8 6.92,106.74 4.61,22.94 13.29,47.46 26.05,73.57l-144.66 0c-3.73,-9.53 -8.51,-23.64 -14.01,-42.34 -2.3,-8.65 -4.08,-14.29 -5.14,-16.94 -24.82,24.35 -51.41,42.52 -79.78,54.69 -28.36,12.18 -58.5,18.35 -90.59,18.35 -56.55,0 -101.23,-15.35 -133.85,-46.05 -32.62,-30.52 -48.93,-69.33 -48.93,-116.26 0,-30.88 7.45,-58.58 22.34,-82.92 14.89,-24.17 35.63,-42.88 62.58,-55.76 26.77,-12.87 65.42,-24.17 115.94,-33.87 68.08,-12.7 115.42,-24.7 141.66,-35.64l0 -14.64c0,-28.23 -6.92,-48.34 -20.74,-60.52 -14.01,-11.99 -40.25,-17.99 -78.72,-17.99 -26.06,0 -46.28,5.11 -60.81,15.52 -14.72,10.24 -26.42,28.41 -35.46,54.34zm195.73 117.5c-18.62,6.18 -48.23,13.59 -88.82,22.23 -40.43,8.65 -67.02,17.12 -79.43,25.23 -18.97,13.59 -28.54,30.53 -28.54,51.17 0,20.46 7.62,37.93 22.87,52.75 15.24,14.82 34.57,22.23 58.15,22.23 26.23,0 51.41,-8.64 75.34,-25.76 17.56,-13.23 29.25,-29.11 34.75,-48.16 3.73,-12.35 5.68,-35.99 5.68,-70.75l0 -28.94z"/>
   <path id="_7" class="fil1" d="M13601.29 13874.65l-135.09 0 0 -80.63c-22.52,31.41 -49.29,54.87 -79.96,70.75 -30.67,15.7 -61.7,23.64 -92.9,23.64 -63.65,0 -118.07,-25.4 -163.46,-76.39 -45.21,-50.99 -67.9,-121.91 -67.9,-213.13 0,-93.15 21.99,-164.08 66.13,-212.59 44.14,-48.52 99.81,-72.69 167.18,-72.69 61.7,0 115.24,25.58 160.27,76.57l0 -273.47 145.73 0 0 757.94zm-389.32 -285.28c0,58.75 8.16,101.27 24.28,127.55 23.59,38.11 56.38,57.17 98.57,57.17 33.51,0 62.05,-14.29 85.46,-42.88 23.58,-28.58 35.28,-71.1 35.28,-127.91 0,-63.33 -11.35,-108.85 -34.22,-136.73 -22.87,-27.87 -51.94,-41.81 -87.57,-41.81 -34.58,0 -63.48,13.76 -86.87,41.28 -23.24,27.52 -34.93,68.63 -34.93,123.33z"/>
   <path id="_8" class="fil1" d="M14063.83 13701.04l145.73 24.35c-18.61,53.11 -48.23,93.51 -88.47,121.38 -40.42,27.7 -90.94,41.64 -151.4,41.64 -95.91,0 -167,-31.23 -212.93,-93.68 -36.33,-50.11 -54.6,-113.27 -54.6,-189.66 0,-91.04 23.94,-162.49 71.63,-214.01 47.69,-51.69 108.14,-77.45 181.18,-77.45 81.91,0 146.62,26.99 194.13,80.98 47.34,53.99 70.03,136.73 67.9,248.23l-364.85 0c1.06,43.05 12.77,76.57 35.28,100.57 22.34,23.99 50.35,35.99 83.68,35.99 22.87,0 42.02,-6.18 57.44,-18.53 15.6,-12.35 27.3,-32.28 35.28,-59.81zm8.51 -147.14c-1.06,-42.16 -11.87,-74.27 -32.62,-96.15 -20.75,-22.05 -45.92,-32.99 -75.7,-32.99 -31.74,0 -57.97,11.64 -78.72,34.75 -20.74,23.12 -30.84,54.7 -30.49,94.39l217.53 0z"/>
   <polygon id="_9" class="fil1" points="14627.6,13874.65 14627.6,13116.71 14781.85,13116.71 14781.85,13874.65 "/>
   <path id="_10" class="fil1" d="M15429.47 13874.65l-145.72 0 0 -279.99c0,-59.28 -3.2,-97.57 -9.4,-114.86 -6.38,-17.46 -16.49,-30.87 -30.67,-40.58 -14.18,-9.7 -31.21,-14.46 -51.06,-14.46 -25.53,0 -48.4,6.88 -68.6,20.64 -20.39,13.76 -34.22,32.11 -41.67,54.69 -7.62,22.76 -11.35,64.75 -11.35,126.15l0 248.41 -145.73 0 0 -549.4 135.1 0 0 80.63c48.39,-61.57 109.21,-92.27 182.78,-92.27 32.27,0 61.87,5.82 88.64,17.29 26.95,11.64 47.16,26.29 60.82,44.1 13.82,18 23.39,38.29 28.71,61.05 5.5,22.76 8.15,55.22 8.15,97.56l0 341.04z"/>
   <path id="_11" class="fil1" d="M15829.26 13325.25l0 115.39 -99.99 0 0 222.47c0,45.17 0.88,71.46 2.84,78.87 1.95,7.41 6.2,13.58 13.11,18.52 6.75,4.76 14.9,7.23 24.64,7.23 13.66,0 33.16,-4.58 58.87,-13.93l12.23 112.91c-33.87,14.47 -72.15,21.7 -115.06,21.7 -26.24,0 -49.82,-4.41 -70.91,-13.23 -21.11,-8.82 -36.53,-20.29 -46.28,-34.23 -9.93,-14.11 -16.66,-32.99 -20.56,-56.98 -3.01,-16.94 -4.61,-51.17 -4.61,-102.86l0 -240.47 -67.01 0 0 -115.39 67.01 0 0 -109.03 145.73 -85.74 0 194.77 99.99 0z"/>
   <path id="_12" class="fil1" d="M16250.49 13701.04l145.73 24.35c-18.61,53.11 -48.23,93.51 -88.47,121.38 -40.42,27.7 -90.94,41.64 -151.41,41.64 -95.9,0 -166.99,-31.23 -212.92,-93.68 -36.33,-50.11 -54.6,-113.27 -54.6,-189.66 0,-91.04 23.93,-162.49 71.63,-214.01 47.69,-51.69 108.14,-77.45 181.18,-77.45 81.91,0 146.62,26.99 194.13,80.98 47.34,53.99 70.03,136.73 67.9,248.23l-364.86 0c1.07,43.05 12.78,76.57 35.29,100.57 22.33,23.99 50.35,35.99 83.68,35.99 22.87,0 42.01,-6.18 57.44,-18.53 15.59,-12.35 27.3,-32.28 35.28,-59.81zm8.51 -147.14c-1.06,-42.16 -11.88,-74.27 -32.63,-96.15 -20.74,-22.05 -45.91,-32.99 -75.69,-32.99 -31.74,0 -57.97,11.64 -78.72,34.75 -20.75,23.12 -30.84,54.7 -30.49,94.39l217.53 0z"/>
   <polygon id="_13" class="fil1" points="16522.98,13874.65 16522.98,13116.71 16668.7,13116.71 16668.7,13874.65 "/>
   <path id="_14" class="fil1" d="M16818.52 13251.15l0 -134.44 145.73 0 0 134.44 -145.73 0zm0 623.5l0 -549.4 145.73 0 0 549.4 -145.73 0z"/>
   <path id="_15" class="fil1" d="M17100.23 13909.58l167 20.12c2.84,19.58 9.23,32.99 19.16,40.4 13.99,10.41 35.8,15.7 65.58,15.7 38.13,0 66.67,-5.65 85.82,-17.11 12.76,-7.59 22.51,-19.76 29.07,-36.7 4.43,-12 6.73,-34.4 6.73,-66.69l0.72 -80.28c-43.97,59.81 -99.29,89.63 -165.95,89.63 -74.1,0 -132.96,-31.23 -176.22,-93.51 -34.04,-49.22 -51.06,-110.62 -51.06,-183.84 0,-92.09 22.34,-162.31 66.83,-210.83 44.51,-48.52 100,-72.86 166.3,-72.86 68.26,0 124.63,29.81 168.96,89.45l0 -77.81 136.16 0 0 492.59c0,64.75 -5.33,113.27 -16.14,145.2 -10.63,32.11 -25.71,57.16 -45.21,75.51 -19.32,18.17 -45.21,32.64 -77.65,42.87 -32.44,10.41 -73.39,15.53 -122.86,15.53 -93.6,0 -159.91,-16.06 -199.09,-47.99 -39.18,-32.11 -58.68,-72.51 -58.68,-121.73 0,-4.77 0.17,-10.77 0.53,-17.65zm130.84 -320.74c0,58.22 11.34,100.74 33.86,127.73 22.69,26.99 50.71,40.58 83.86,40.58 35.45,0 65.6,-13.94 90.05,-41.64 24.65,-27.7 36.88,-68.63 36.88,-122.97 0,-56.81 -11.69,-98.98 -35.28,-126.5 -23.4,-27.52 -53.19,-41.28 -89.17,-41.28 -34.93,0 -63.65,13.58 -86.34,40.58 -22.52,26.99 -33.86,68.1 -33.86,123.5z"/>
   <path id="_16" class="fil1" d="M18082.93 13701.04l145.73 24.35c-18.61,53.11 -48.23,93.51 -88.47,121.38 -40.42,27.7 -90.94,41.64 -151.4,41.64 -95.91,0 -167,-31.23 -212.92,-93.68 -36.34,-50.11 -54.61,-113.27 -54.61,-189.66 0,-91.04 23.94,-162.49 71.63,-214.01 47.69,-51.69 108.14,-77.45 181.19,-77.45 81.9,0 146.61,26.99 194.13,80.98 47.33,53.99 70.02,136.73 67.89,248.23l-364.85 0c1.06,43.05 12.77,76.57 35.28,100.57 22.34,23.99 50.35,35.99 83.68,35.99 22.87,0 42.02,-6.18 57.44,-18.53 15.6,-12.35 27.3,-32.28 35.28,-59.81zm8.51 -147.14c-1.06,-42.16 -11.87,-74.27 -32.62,-96.15 -20.75,-22.05 -45.92,-32.99 -75.7,-32.99 -31.73,0 -57.97,11.64 -78.72,34.75 -20.74,23.12 -30.84,54.7 -30.49,94.39l217.53 0zm-290.39 -299.57l109.03 -152.44 134.38 0 107.62 152.44 -117.02 0 -60.1 -77.28 -55.84 77.28 -118.07 0z"/>
   <path id="_17" class="fil1" d="M18857.49 13874.65l-145.72 0 0 -279.99c0,-59.28 -3.2,-97.57 -9.4,-114.86 -6.38,-17.46 -16.49,-30.87 -30.67,-40.58 -14.19,-9.7 -31.21,-14.46 -51.06,-14.46 -25.53,0 -48.4,6.88 -68.61,20.64 -20.39,13.76 -34.21,32.11 -41.66,54.69 -7.63,22.76 -11.35,64.75 -11.35,126.15l0 248.41 -145.73 0 0 -549.4 135.1 0 0 80.63c48.39,-61.57 109.2,-92.27 182.78,-92.27 32.27,0 61.87,5.82 88.64,17.29 26.95,11.64 47.16,26.29 60.81,44.1 13.83,18 23.4,38.29 28.72,61.05 5.5,22.76 8.15,55.22 8.15,97.56l0 341.04z"/>
   <path id="_18" class="fil1" d="M19485.98 13488.27l-143.61 25.41c-4.78,-28.41 -15.78,-49.76 -32.97,-64.22 -17.2,-14.29 -39.36,-21.53 -66.66,-21.53 -36.35,0 -65.42,12.53 -87.05,37.58 -21.63,25.06 -32.44,66.87 -32.44,125.62 0,65.28 10.99,111.33 32.97,138.32 21.99,26.99 51.42,40.4 88.3,40.4 27.65,0 50.34,-7.94 67.9,-23.64 17.72,-15.7 30.13,-42.7 37.4,-81.16l143.6 24.35c-14.89,65.63 -43.43,115.21 -85.62,148.73 -42.2,33.52 -98.75,50.28 -169.85,50.28 -80.49,0 -144.84,-25.4 -192.71,-76.04 -48.04,-50.81 -71.98,-121.03 -71.98,-210.83 0,-90.86 24.11,-161.43 72.16,-212.07 48.05,-50.63 113.11,-75.86 195.19,-75.86 67.01,0 120.38,14.46 160.09,43.22 39.53,28.76 67.9,72.51 85.28,131.44z"/>
   <path id="_19" class="fil1" d="M19596.78 13251.15l0 -134.44 145.73 0 0 134.44 -145.73 0zm0 623.5l0 -549.4 145.73 0 0 549.4 -145.73 0z"/>
   <path id="_20" class="fil1" d="M20000.82 13494.62l-131.9 -23.29c14.89,-53.63 40.6,-93.33 76.94,-119.08 36.35,-25.76 90.42,-38.64 162.04,-38.64 65.06,0 113.64,7.58 145.55,22.93 31.74,15.35 54.25,34.76 67.2,58.4 12.94,23.64 19.5,66.87 19.5,130.03l-2.13 169.37c0,48.17 2.3,83.8 6.91,106.74 4.62,22.94 13.3,47.46 26.06,73.57l-144.66 0c-3.73,-9.53 -8.51,-23.64 -14.01,-42.34 -2.3,-8.65 -4.08,-14.29 -5.14,-16.94 -24.82,24.35 -51.41,42.52 -79.78,54.69 -28.37,12.18 -58.5,18.35 -90.59,18.35 -56.55,0 -101.23,-15.35 -133.86,-46.05 -32.61,-30.52 -48.92,-69.33 -48.92,-116.26 0,-30.88 7.44,-58.58 22.34,-82.92 14.89,-24.17 35.63,-42.88 62.58,-55.76 26.77,-12.87 65.42,-24.17 115.94,-33.87 68.08,-12.7 115.42,-24.7 141.66,-35.64l0 -14.64c0,-28.23 -6.92,-48.34 -20.74,-60.52 -14.01,-11.99 -40.25,-17.99 -78.73,-17.99 -26.05,0 -46.27,5.11 -60.8,15.52 -14.72,10.24 -26.42,28.41 -35.46,54.34zm195.73 117.5c-18.62,6.18 -48.23,13.59 -88.82,22.23 -40.43,8.65 -67.02,17.12 -79.43,25.23 -18.97,13.59 -28.55,30.53 -28.55,51.17 0,20.46 7.63,37.93 22.87,52.75 15.25,14.82 34.58,22.23 58.16,22.23 26.23,0 51.4,-8.64 75.34,-25.76 17.56,-13.23 29.25,-29.11 34.75,-48.16 3.73,-12.35 5.68,-35.99 5.68,-70.75l0 -28.94z"/>
   <path id="_21" class="fil1" d="M21285.8 13874.65l-135.09 0 0 -80.63c-22.52,31.41 -49.29,54.87 -79.96,70.75 -30.67,15.7 -61.7,23.64 -92.9,23.64 -63.65,0 -118.07,-25.4 -163.46,-76.39 -45.21,-50.99 -67.9,-121.91 -67.9,-213.13 0,-93.15 21.99,-164.08 66.13,-212.59 44.14,-48.52 99.81,-72.69 167.18,-72.69 61.7,0 115.24,25.58 160.26,76.57l0 -273.47 145.74 0 0 757.94zm-389.32 -285.28c0,58.75 8.15,101.27 24.28,127.55 23.59,38.11 56.38,57.17 98.57,57.17 33.51,0 62.05,-14.29 85.45,-42.88 23.59,-28.58 35.28,-71.1 35.28,-127.91 0,-63.33 -11.34,-108.85 -34.21,-136.73 -22.87,-27.87 -51.94,-41.81 -87.58,-41.81 -34.57,0 -63.47,13.76 -86.87,41.28 -23.23,27.52 -34.92,68.63 -34.92,123.33z"/>
   <path id="_22" class="fil1" d="M21537.72 13494.62l-131.9 -23.29c14.89,-53.63 40.6,-93.33 76.94,-119.08 36.35,-25.76 90.42,-38.64 162.04,-38.64 65.06,0 113.64,7.58 145.55,22.93 31.74,15.35 54.26,34.76 67.2,58.4 12.94,23.64 19.5,66.87 19.5,130.03l-2.13 169.37c0,48.17 2.3,83.8 6.92,106.74 4.61,22.94 13.29,47.46 26.05,73.57l-144.66 0c-3.73,-9.53 -8.51,-23.64 -14.01,-42.34 -2.3,-8.65 -4.08,-14.29 -5.14,-16.94 -24.82,24.35 -51.41,42.52 -79.78,54.69 -28.36,12.18 -58.5,18.35 -90.59,18.35 -56.55,0 -101.23,-15.35 -133.85,-46.05 -32.62,-30.52 -48.93,-69.33 -48.93,-116.26 0,-30.88 7.45,-58.58 22.34,-82.92 14.89,-24.17 35.63,-42.88 62.58,-55.76 26.77,-12.87 65.42,-24.17 115.94,-33.87 68.08,-12.7 115.42,-24.7 141.66,-35.64l0 -14.64c0,-28.23 -6.92,-48.34 -20.74,-60.52 -14.01,-11.99 -40.25,-17.99 -78.72,-17.99 -26.06,0 -46.28,5.11 -60.81,15.52 -14.72,10.24 -26.42,28.41 -35.46,54.34zm195.73 117.5c-18.62,6.18 -48.23,13.59 -88.82,22.23 -40.43,8.65 -67.02,17.12 -79.43,25.23 -18.97,13.59 -28.55,30.53 -28.55,51.17 0,20.46 7.63,37.93 22.88,52.75 15.24,14.82 34.57,22.23 58.15,22.23 26.23,0 51.41,-8.64 75.34,-25.76 17.56,-13.23 29.25,-29.11 34.75,-48.16 3.73,-12.35 5.68,-35.99 5.68,-70.75l0 -28.94z"/>
   <path id="_23" class="fil1" d="M22317.44 13116.71l280.46 0c63.29,0 111.51,4.77 144.66,14.47 44.5,13.06 82.79,36.35 114.53,69.87 31.91,33.34 56.02,74.27 72.69,122.79 16.49,48.34 24.82,108.15 24.82,179.08 0,62.45 -7.8,116.09 -23.4,161.25 -18.97,55.22 -46.1,99.86 -81.38,133.91 -26.59,25.94 -62.58,46.05 -107.79,60.52 -33.86,10.76 -79.07,16.05 -135.8,16.05l-288.79 0 0 -757.94zm154.23 128.09l0 501.76 114.35 0c42.72,0 73.57,-2.47 92.54,-7.23 25.01,-6.18 45.56,-16.76 61.87,-31.58 16.49,-14.82 29.79,-39.17 40.08,-73.04 10.46,-33.88 15.59,-80.28 15.59,-138.85 0,-58.58 -5.13,-103.39 -15.59,-134.79 -10.29,-31.41 -24.82,-55.75 -43.44,-73.4 -18.61,-17.46 -42.2,-29.46 -70.92,-35.64 -21.27,-4.76 -63.28,-7.23 -125.69,-7.23l-68.79 0z"/>
   <path id="_24" class="fil1" d="M23084.55 13251.15l0 -134.44 145.73 0 0 134.44 -145.73 0zm0 623.5l0 -549.4 145.73 0 0 549.4 -145.73 0z"/>
   <path id="_25" class="fil1" d="M23531.85 13874.65l-222.5 -549.4 153.18 0 103.88 280.35 30.15 93.68c7.98,-23.82 13.11,-39.52 15.06,-47.11 4.97,-15.52 10.11,-31.05 15.78,-46.57l105.31 -280.35 149.98 0 -219.3 549.4 -131.54 0z"/>
   <path id="_26" class="fil1" d="M23971.7 13251.15l0 -134.44 145.72 0 0 134.44 -145.72 0zm0 623.5l0 -549.4 145.72 0 0 549.4 -145.72 0z"/>
   <path id="_27" class="fil1" d="M24773.57 13874.65l-135.1 0 0 -80.63c-22.52,31.41 -49.28,54.87 -79.95,70.75 -30.67,15.7 -61.7,23.64 -92.9,23.64 -63.65,0 -118.07,-25.4 -163.46,-76.39 -45.21,-50.99 -67.9,-121.91 -67.9,-213.13 0,-93.15 21.98,-164.08 66.13,-212.59 44.14,-48.52 99.81,-72.69 167.18,-72.69 61.7,0 115.23,25.58 160.26,76.57l0 -273.47 145.74 0 0 757.94zm-389.33 -285.28c0,58.75 8.16,101.27 24.29,127.55 23.58,38.11 56.37,57.17 98.57,57.17 33.51,0 62.05,-14.29 85.45,-42.88 23.59,-28.58 35.28,-71.1 35.28,-127.91 0,-63.33 -11.34,-108.85 -34.21,-136.73 -22.87,-27.87 -51.94,-41.81 -87.58,-41.81 -34.57,0 -63.47,13.76 -86.87,41.28 -23.23,27.52 -34.93,68.63 -34.93,123.33z"/>
   <path id="_28" class="fil1" d="M25025.49 13494.62l-131.9 -23.29c14.89,-53.63 40.6,-93.33 76.94,-119.08 36.35,-25.76 90.42,-38.64 162.04,-38.64 65.06,0 113.64,7.58 145.55,22.93 31.73,15.35 54.25,34.76 67.2,58.4 12.94,23.64 19.5,66.87 19.5,130.03l-2.13 169.37c0,48.17 2.3,83.8 6.91,106.74 4.62,22.94 13.3,47.46 26.06,73.57l-144.66 0c-3.73,-9.53 -8.51,-23.64 -14.01,-42.34 -2.3,-8.65 -4.08,-14.29 -5.14,-16.94 -24.82,24.35 -51.41,42.52 -79.78,54.69 -28.37,12.18 -58.5,18.35 -90.59,18.35 -56.55,0 -101.23,-15.35 -133.86,-46.05 -32.61,-30.52 -48.92,-69.33 -48.92,-116.26 0,-30.88 7.44,-58.58 22.34,-82.92 14.89,-24.17 35.63,-42.88 62.58,-55.76 26.77,-12.87 65.41,-24.17 115.94,-33.87 68.08,-12.7 115.42,-24.7 141.66,-35.64l0 -14.64c0,-28.23 -6.92,-48.34 -20.74,-60.52 -14.01,-11.99 -40.25,-17.99 -78.73,-17.99 -26.05,0 -46.27,5.11 -60.8,15.52 -14.72,10.24 -26.42,28.41 -35.46,54.34zm195.73 117.5c-18.62,6.18 -48.23,13.59 -88.82,22.23 -40.43,8.65 -67.02,17.12 -79.43,25.23 -18.97,13.59 -28.55,30.53 -28.55,51.17 0,20.46 7.63,37.93 22.87,52.75 15.25,14.82 34.58,22.23 58.15,22.23 26.24,0 51.41,-8.64 75.35,-25.76 17.55,-13.23 29.25,-29.11 34.75,-48.16 3.73,-12.35 5.68,-35.99 5.68,-70.75l0 -28.94z"/>
   <path id="_29" class="fil1" d="M26451.75 13874.65l-166.11 0 -65.77 -172.55 -305.47 0 -63.29 172.55 -163.1 0 295.71 -757.94 162.93 0 305.1 757.94zm-281.88 -300.63l-105.84 -280.52 -102.82 280.52 208.66 0z"/>
   <path id="_30" class="fil1" d="M26784.88 13325.25l0 115.39 -100 0 0 222.47c0,45.17 0.89,71.46 2.85,78.87 1.95,7.41 6.2,13.58 13.11,18.52 6.74,4.76 14.89,7.23 24.64,7.23 13.66,0 33.16,-4.58 58.86,-13.93l12.23 112.91c-33.86,14.47 -72.15,21.7 -115.05,21.7 -26.24,0 -49.83,-4.41 -70.92,-13.23 -21.1,-8.82 -36.52,-20.29 -46.27,-34.23 -9.93,-14.11 -16.66,-32.99 -20.56,-56.98 -3.02,-16.94 -4.61,-51.17 -4.61,-102.86l0 -240.47 -67.02 0 0 -115.39 67.02 0 0 -109.03 145.72 -85.74 0 194.77 100 0z"/>
   <path id="_31" class="fil1" d="M26886.99 13251.15l0 -134.44 145.73 0 0 134.44 -145.73 0zm0 623.5l0 -549.4 145.73 0 0 549.4 -145.73 0z"/>
   <path id="_32" class="fil1" d="M27334.29 13874.65l-222.5 -549.4 153.18 0 103.88 280.35 30.15 93.68c7.98,-23.82 13.11,-39.52 15.06,-47.11 4.97,-15.52 10.11,-31.05 15.78,-46.57l105.31 -280.35 149.99 0 -219.31 549.4 -131.54 0z"/>
   <path id="_33" class="fil1" d="M27882.63 13494.62l-131.9 -23.29c14.9,-53.63 40.6,-93.33 76.95,-119.08 36.34,-25.76 90.41,-38.64 162.03,-38.64 65.07,0 113.64,7.58 145.56,22.93 31.73,15.35 54.25,34.76 67.19,58.4 12.94,23.64 19.5,66.87 19.5,130.03l-2.13 169.37c0,48.17 2.31,83.8 6.92,106.74 4.61,22.94 13.29,47.46 26.05,73.57l-144.66 0c-3.72,-9.53 -8.51,-23.64 -14,-42.34 -2.31,-8.65 -4.08,-14.29 -5.15,-16.94 -24.82,24.35 -51.41,42.52 -79.78,54.69 -28.36,12.18 -58.5,18.35 -90.58,18.35 -56.56,0 -101.23,-15.35 -133.86,-46.05 -32.62,-30.52 -48.93,-69.33 -48.93,-116.26 0,-30.88 7.45,-58.58 22.34,-82.92 14.89,-24.17 35.63,-42.88 62.58,-55.76 26.77,-12.87 65.42,-24.17 115.94,-33.87 68.08,-12.7 115.42,-24.7 141.66,-35.64l0 -14.64c0,-28.23 -6.91,-48.34 -20.74,-60.52 -14.01,-11.99 -40.25,-17.99 -78.72,-17.99 -26.06,0 -46.28,5.11 -60.81,15.52 -14.72,10.24 -26.41,28.41 -35.46,54.34zm195.73 117.5c-18.62,6.18 -48.22,13.59 -88.82,22.23 -40.43,8.65 -67.01,17.12 -79.43,25.23 -18.97,13.59 -28.54,30.53 -28.54,51.17 0,20.46 7.62,37.93 22.87,52.75 15.24,14.82 34.57,22.23 58.15,22.23 26.24,0 51.41,-8.64 75.34,-25.76 17.56,-13.23 29.26,-29.11 34.75,-48.16 3.73,-12.35 5.68,-35.99 5.68,-70.75l0 -28.94z"/>
  </g>
 </g>
</svg>
