<?xml version="1.0" encoding="UTF-8"?>
<!DOCTYPE svg PUBLIC "-//W3C//DTD SVG 1.1//EN" "http://www.w3.org/Graphics/SVG/1.1/DTD/svg11.dtd">
<!-- Creator: CorelDRAW 2021 (64 Bit) -->
<svg xmlns="http://www.w3.org/2000/svg" xml:space="preserve" width="29.7cm" height="21cm" version="1.1" style="shape-rendering:geometricPrecision; text-rendering:geometricPrecision; image-rendering:optimizeQuality; fill-rule:evenodd; clip-rule:evenodd"
viewBox="0 0 29700 21000"
 xmlns:xlink="http://www.w3.org/1999/xlink"
 xmlns:xodm="http://www.corel.com/coreldraw/odm/2003">
 <defs>
  <style type="text/css">
   <![CDATA[
    .str0 {stroke:#373435;stroke-width:20;stroke-miterlimit:22.9256}
    .fil10 {fill:#BB3337}
    .fil9 {fill:#201E1E}
    .fil0 {fill:#201E1E}
    .fil12 {fill:#1E8DC1}
    .fil13 {fill:#1E8DC1}
    .fil11 {fill:#3DA6D6}
    .fil14 {fill:#CCD4DA}
    .fil15 {fill:#CCD4DA}
    .fil1 {fill:#201E1E;fill-rule:nonzero}
    .fil2 {fill:url(#id0)}
    .fil4 {fill:url(#id1)}
    .fil6 {fill:url(#id2)}
    .fil3 {fill:url(#id3)}
    .fil5 {fill:url(#id4)}
    .fil7 {fill:url(#id5)}
    .fil8 {fill:url(#id6)}
   ]]>
  </style>
  <linearGradient id="id0" gradientUnits="userSpaceOnUse" x1="9368.85" y1="4406.12" x2="10548.27" y2="5073.4">
   <stop offset="0" style="stop-opacity:1; stop-color:#4397D2"/>
   <stop offset="1" style="stop-opacity:1; stop-color:#4473B7"/>
  </linearGradient>
  <linearGradient id="id1" gradientUnits="userSpaceOnUse" xlink:href="#id0" x1="15981.91" y1="11339.91" x2="17161.33" y2="12007.19">
  </linearGradient>
  <linearGradient id="id2" gradientUnits="userSpaceOnUse" x1="20786.66" y1="6579.6" x2="21966.08" y2="7246.89">
   <stop offset="0" style="stop-opacity:1; stop-color:#D24443"/>
   <stop offset="1" style="stop-opacity:1; stop-color:#B13336"/>
  </linearGradient>
  <linearGradient id="id3" gradientUnits="userSpaceOnUse" xlink:href="#id0" x1="7681.52" y1="8028.72" x2="8860.93" y2="8696.01">
  </linearGradient>
  <linearGradient id="id4" gradientUnits="userSpaceOnUse" xlink:href="#id0" x1="19715.7" y1="8384.63" x2="20895.11" y2="9051.91">
  </linearGradient>
  <linearGradient id="id5" gradientUnits="userSpaceOnUse" xlink:href="#id0" x1="15978.65" y1="2957.01" x2="17158.07" y2="3624.3">
  </linearGradient>
  <linearGradient id="id6" gradientUnits="userSpaceOnUse" xlink:href="#id0" x1="13959.77" y1="1738.29" x2="14970.07" y2="2309.9">
  </linearGradient>
 </defs>
 <g id="Camada_x0020_1">
  <metadata id="CorelCorpID_0Corel-Layer"/>
  <g id="_2087525781040">
   <g>
    <path class="fil0" d="M14831.43 14909.28c940.67,-56.09 1898.34,-26.65 1951.38,1170.02 21.96,495.65 -185.43,895.51 -469.62,1098.58 -332.59,237.65 -818.19,239.38 -1312.74,223.61l-20.17 802.51c1012.81,-41.14 1560.06,11.44 2184.66,-584.05 241.19,-229.95 387.79,-432.74 521.36,-842.61 114.35,-350.91 117.27,-812.82 28.96,-1176.23 -182.78,-752.11 -625.61,-1180.47 -1327.75,-1397.4 -408.37,-126.18 -795.75,-117.56 -1253.19,-115.72 -413.33,1.67 -896.27,-23.49 -1295.41,-6.12l-3.25 4118.26c52.26,5 902.56,17.91 994.33,-15.64l1.44 -3275.21zm-2275.14 -301.49c144.22,-524.97 -733.75,-890.41 -931.75,-262.89 -195.36,619.17 768.32,857.77 931.75,262.89zm-930.41 3594.27l957.6 -7.57c-8.2,-368.26 38.82,-2782.59 -20.37,-2895.05 -53.69,-61.56 -849.79,-35.06 -940.71,-22.47l3.48 2925.09zm8743.84 -2801.72c31.98,-43.48 14.47,-25.49 54.97,-50.69 29.56,34.22 592.34,1251.09 563.91,1377.85l-884.7 17.91c-108.47,120.41 -301.59,552.21 -354.43,760.43l1615.84 -17.17c97.44,142.38 252.21,550.84 313.44,712.57l1053.58 -1.93 -471.7 -1010.69c-435.04,-1002.23 -1004.84,-2159.09 -1395.52,-3101.28l-904.02 -11.57c-69.74,83.1 -183.29,409.67 -230,519.86l-648.2 1560.03c-149.72,354.93 -291.93,672.14 -441.4,1031.18 -141.72,340.44 -336.02,703.73 -453.96,1020.21l971.97 -15.14 1210.22 -2791.57zm-10416.67 -244.18c71.05,-87.6 363.75,-633.74 384.82,-744.56l-512.84 -245.35c-772.29,-291.95 -2345.11,-299.71 -2652.59,741.08 -125.51,424.88 0.04,890.84 229.89,1133.02 482.56,508.45 1961.85,419.18 2035.87,943.29 72.68,514.64 -630.82,481.92 -1006.71,420.43 -512.49,-83.83 -664.67,-248.28 -1041.82,-436.59 -72.75,85.5 -399.44,645.28 -423.06,738.54 529.73,416.97 1577.57,649.18 2407.31,468.22 1070.07,-233.36 1278.89,-1202.37 945.59,-1778.65 -405.45,-701.04 -1629.62,-658.8 -2044.16,-955.66 -201.53,-144.32 -346.64,-698.41 560.06,-653.5 541.52,26.81 813.37,268.14 1117.64,369.73z"/>
    <path class="fil1" d="M7284.62 19185.11l115.93 -11.45c6.99,38.59 20.97,66.82 42.21,84.96 21.24,18.14 49.89,27.14 85.93,27.14 38.1,0 66.87,-8.04 86.2,-24.14 19.32,-16.09 29.05,-34.91 29.05,-56.46 0,-13.91 -4.11,-25.64 -12.2,-35.46 -8.08,-9.68 -22.33,-18.14 -42.62,-25.23 -13.84,-4.91 -45.36,-13.36 -94.69,-25.64 -63.45,-15.82 -107.99,-35.18 -133.62,-58.23 -36.04,-32.32 -53.99,-71.74 -53.99,-118.24 0,-29.87 8.49,-57.96 25.35,-84.01 16.99,-26.05 41.39,-45.82 73.32,-59.46 31.93,-13.64 70.3,-20.46 115.52,-20.46 73.6,0 129.1,16.23 166.24,48.83 37.27,32.59 56.73,75.96 58.65,130.37l-119.23 4.1c-5.07,-30.28 -15.89,-51.97 -32.48,-65.19 -16.58,-13.23 -41.52,-19.92 -74.68,-19.92 -34.26,0 -61.13,7.1 -80.45,21.28 -12.47,9.14 -18.77,21.27 -18.77,36.55 0,13.91 5.89,25.77 17.68,35.59 14.93,12.69 51.25,25.78 108.95,39.42 57.69,13.5 100.31,27.68 127.86,42.14 27.68,14.59 49.33,34.37 64.95,59.6 15.63,25.23 23.44,56.32 23.44,93.28 0,33.55 -9.32,65.05 -28.1,94.37 -18.77,29.33 -45.22,51.15 -79.48,65.33 -34.26,14.32 -77.02,21.41 -128.13,21.41 -74.42,0 -131.57,-17.05 -171.44,-51.28 -39.88,-34.09 -63.59,-83.87 -71.4,-149.2zm578.86 -292.12l0 -103.92 112.65 0 0 103.92 -112.65 0zm0 481.96l0 -424.68 112.65 0 0 424.68 -112.65 0zm188.16 -119.47l113.47 -17.18c4.8,21.69 14.53,38.19 29.33,49.37 14.66,11.32 35.36,16.91 61.81,16.91 29.19,0 51.11,-5.32 65.91,-15.95 9.87,-7.51 14.8,-17.6 14.8,-30.15 0,-8.45 -2.74,-15.54 -8.08,-21.13 -5.62,-5.32 -18.23,-10.37 -37.69,-14.87 -91.13,-20.05 -148.83,-38.32 -173.22,-54.82 -33.85,-23.05 -50.7,-54.96 -50.7,-95.74 0,-36.96 14.66,-67.92 43.85,-93.01 29.19,-25.09 74.41,-37.64 135.67,-37.64 58.38,0 101.82,9.55 130.19,28.5 28.37,19.09 47.96,47.19 58.65,84.42l-106.07 19.64c-4.52,-16.64 -13.29,-29.46 -26.04,-38.32 -12.74,-8.87 -30.97,-13.23 -54.67,-13.23 -29.88,0 -51.26,4.09 -64.28,12.41 -8.63,5.86 -12.88,13.5 -12.88,22.77 0,8.05 3.7,14.87 11.24,20.46 10.28,7.5 45.5,18 105.79,31.64 60.3,13.64 102.37,30.28 126.22,50.05 23.71,19.91 35.49,47.87 35.49,83.6 0,38.87 -16.3,72.42 -49.06,100.38 -32.61,27.95 -80.99,42 -145.12,42 -58.11,0 -104.16,-11.73 -138.14,-35.05 -33.85,-23.32 -56.05,-54.96 -66.47,-95.06zm692.48 -305.21l0 89.19 -77.3 0 0 171.97c0,34.92 0.69,55.24 2.2,60.96 1.5,5.73 4.79,10.51 10.14,14.32 5.2,3.69 11.51,5.6 19.05,5.6 10.55,0 25.62,-3.55 45.49,-10.78l9.46 87.29c-26.17,11.18 -55.78,16.77 -88.94,16.77 -20.28,0 -38.51,-3.41 -54.82,-10.23 -16.3,-6.82 -28.23,-15.68 -35.77,-26.46 -7.67,-10.91 -12.88,-25.5 -15.89,-44.05 -2.33,-13.09 -3.57,-39.55 -3.57,-79.51l0 -185.88 -51.8 0 0 -89.19 51.8 0 0 -84.28 112.65 -66.28 0 150.56 77.3 0zm325.61 290.49l112.65 18.82c-14.39,41.05 -37.28,72.28 -68.39,93.83 -31.24,21.41 -70.3,32.18 -117.03,32.18 -74.14,0 -129.1,-24.14 -164.59,-72.42 -28.09,-38.73 -42.21,-87.55 -42.21,-146.6 0,-70.38 18.5,-125.61 55.37,-165.43 36.86,-39.96 83.59,-59.87 140.06,-59.87 63.31,0 113.33,20.86 150.05,62.6 36.59,41.73 54.14,105.69 52.49,191.88l-282.03 0c0.82,33.28 9.87,59.19 27.27,77.74 17.27,18.54 38.92,27.82 64.69,27.82 17.67,0 32.47,-4.77 44.4,-14.32 12.06,-9.55 21.1,-24.96 27.27,-46.23zm6.58 -113.74c-0.83,-32.6 -9.19,-57.42 -25.22,-74.33 -16.03,-17.05 -35.49,-25.5 -58.52,-25.5 -24.53,0 -44.81,9 -60.84,26.86 -16.04,17.87 -23.85,42.28 -23.57,72.97l168.15 0zm195.83 -176.75l103.6 0 0 57.96c37.14,-44.6 81.41,-66.96 132.8,-66.96 27.27,0 50.98,5.59 70.98,16.77 20.15,11.19 36.59,28.1 49.34,50.74 18.77,-22.64 39.06,-39.55 60.71,-50.74 21.65,-11.18 44.81,-16.77 69.48,-16.77 31.25,0 57.69,6.27 79.49,18.95 21.65,12.69 37.82,31.24 48.51,55.78 7.81,18.01 11.65,47.33 11.65,87.83l0 271.12 -112.65 0 0 -242.34c0,-42.14 -3.84,-69.28 -11.65,-81.42 -10.42,-15.96 -26.59,-24 -48.24,-24 -15.76,0 -30.7,4.77 -44.68,14.32 -13.84,9.68 -23.98,23.73 -30.14,42.14 -6.17,18.55 -9.19,47.73 -9.19,87.69l0 203.61 -112.65 0 0 -232.39c0,-41.18 -2.05,-67.91 -6.03,-79.78 -3.97,-12 -10.13,-21 -18.63,-26.86 -8.36,-5.87 -19.87,-8.73 -34.26,-8.73 -17.41,0 -33.03,4.63 -46.87,13.91 -13.98,9.41 -23.85,22.77 -29.88,40.36 -6.03,17.6 -9.04,46.78 -9.04,87.42l0 206.07 -112.65 0 0 -424.68zm823.21 130.92l-101.96 -18c11.51,-41.46 31.38,-72.14 59.48,-92.05 28.09,-19.92 69.89,-29.87 125.25,-29.87 50.3,0 87.85,5.86 112.52,17.73 24.53,11.86 41.93,26.86 51.94,45.14 10,18.27 15.07,51.69 15.07,100.51l-1.64 130.92c0,37.23 1.78,64.78 5.34,82.51 3.56,17.73 10.28,36.69 20.15,56.87l-111.83 0c-2.88,-7.36 -6.58,-18.27 -10.83,-32.73 -1.78,-6.68 -3.15,-11.04 -3.97,-13.09 -19.19,18.82 -39.74,32.87 -61.67,42.28 -21.93,9.41 -45.22,14.18 -70.03,14.18 -43.72,0 -78.25,-11.87 -103.47,-35.59 -25.21,-23.6 -37.82,-53.6 -37.82,-89.88 0,-23.87 5.76,-45.28 17.27,-64.1 11.51,-18.68 27.54,-33.14 48.37,-43.09 20.7,-9.96 50.57,-18.69 89.63,-26.19 52.62,-9.82 89.21,-19.09 109.5,-27.55l0 -11.31c0,-21.82 -5.35,-37.37 -16.04,-46.78 -10.83,-9.28 -31.11,-13.91 -60.84,-13.91 -20.15,0 -35.77,3.95 -47.01,12 -11.37,7.91 -20.42,21.96 -27.41,42zm151.3 90.83c-14.39,4.77 -37.28,10.5 -68.66,17.18 -31.25,6.69 -51.8,13.23 -61.4,19.51 -14.66,10.5 -22.06,23.59 -22.06,39.55 0,15.82 5.89,29.32 17.68,40.77 11.78,11.46 26.72,17.19 44.95,17.19 20.28,0 39.74,-6.68 58.24,-19.91 13.57,-10.23 22.61,-22.51 26.86,-37.23 2.88,-9.55 4.39,-27.83 4.39,-54.69l0 -22.37zm841.98 202.93l-104.42 0 0 -62.32c-17.41,24.27 -38.1,42.41 -61.81,54.69 -23.71,12.13 -47.69,18.27 -71.81,18.27 -49.2,0 -91.27,-19.64 -126.35,-59.05 -34.95,-39.42 -52.49,-94.24 -52.49,-164.75 0,-72.01 16.99,-126.83 51.12,-164.33 34.12,-37.51 77.15,-56.19 129.23,-56.19 47.69,0 89.08,19.77 123.88,59.19l0 -211.39 112.65 0 0 585.88zm-300.94 -220.52c0,45.41 6.3,78.28 18.77,98.6 18.23,29.46 43.58,44.19 76.2,44.19 25.9,0 47.96,-11.05 66.05,-33.14 18.23,-22.1 27.27,-54.96 27.27,-98.88 0,-48.96 -8.76,-84.14 -26.44,-105.69 -17.68,-21.55 -40.16,-32.32 -67.7,-32.32 -26.73,0 -49.06,10.63 -67.16,31.91 -17.95,21.28 -26.99,53.05 -26.99,95.33zm658.49 86.33l112.64 18.82c-14.39,41.05 -37.27,72.28 -68.38,93.83 -31.24,21.41 -70.3,32.18 -117.03,32.18 -74.14,0 -129.1,-24.14 -164.59,-72.42 -28.09,-38.73 -42.21,-87.55 -42.21,-146.6 0,-70.38 18.5,-125.61 55.37,-165.43 36.86,-39.96 83.59,-59.87 140.05,-59.87 63.32,0 113.34,20.86 150.06,62.6 36.59,41.73 54.14,105.69 52.49,191.88l-282.03 0c0.82,33.28 9.86,59.19 27.27,77.74 17.27,18.54 38.92,27.82 64.68,27.82 17.68,0 32.48,-4.77 44.4,-14.32 12.06,-9.55 21.11,-24.96 27.28,-46.23zm6.57 -113.74c-0.82,-32.6 -9.18,-57.42 -25.21,-74.33 -16.04,-17.05 -35.5,-25.5 -58.52,-25.5 -24.53,0 -44.81,9 -60.84,26.86 -16.04,17.87 -23.85,42.28 -23.58,72.97l168.15 0zm429.22 247.93l0 -585.88 119.23 0 0 585.88 -119.23 0zm619.84 0l-112.65 0 0 -216.43c0,-45.82 -2.46,-75.42 -7.26,-88.78 -4.93,-13.51 -12.74,-23.87 -23.71,-31.37 -10.96,-7.5 -24.12,-11.18 -39.47,-11.18 -19.73,0 -37.41,5.32 -53.03,15.95 -15.76,10.64 -26.45,24.82 -32.21,42.28 -5.89,17.59 -8.77,50.05 -8.77,97.51l0 192.02 -112.65 0 0 -424.68 104.43 0 0 62.32c37.41,-47.59 84.42,-71.32 141.29,-71.32 24.94,0 47.83,4.5 68.52,13.36 20.83,9 36.46,20.32 47.01,34.1 10.69,13.91 18.09,29.59 22.2,47.19 4.25,17.59 6.3,42.68 6.3,75.41l0 263.62zm309.03 -424.68l0 89.19 -77.29 0 0 171.97c0,34.92 0.68,55.24 2.19,60.96 1.51,5.73 4.8,10.51 10.14,14.32 5.21,3.69 11.51,5.6 19.05,5.6 10.56,0 25.63,-3.55 45.5,-10.78l9.46 87.29c-26.18,11.18 -55.78,16.77 -88.94,16.77 -20.29,0 -38.51,-3.41 -54.82,-10.23 -16.31,-6.82 -28.23,-15.68 -35.77,-26.46 -7.67,-10.91 -12.88,-25.5 -15.9,-44.05 -2.33,-13.09 -3.56,-39.55 -3.56,-79.51l0 -185.88 -51.8 0 0 -89.19 51.8 0 0 -84.28 112.65 -66.28 0 150.56 77.29 0zm325.61 290.49l112.65 18.82c-14.39,41.05 -37.27,72.28 -68.38,93.83 -31.25,21.41 -70.3,32.18 -117.04,32.18 -74.13,0 -129.09,-24.14 -164.58,-72.42 -28.1,-38.73 -42.21,-87.55 -42.21,-146.6 0,-70.38 18.5,-125.61 55.36,-165.43 36.87,-39.96 83.6,-59.87 140.06,-59.87 63.31,0 113.33,20.86 150.06,62.6 36.59,41.73 54.13,105.69 52.49,191.88l-282.03 0c0.82,33.28 9.86,59.19 27.27,77.74 17.26,18.54 38.92,27.82 64.68,27.82 17.68,0 32.48,-4.77 44.4,-14.32 12.06,-9.55 21.11,-24.96 27.27,-46.23zm6.58 -113.74c-0.82,-32.6 -9.18,-57.42 -25.22,-74.33 -16.03,-17.05 -35.49,-25.5 -58.51,-25.5 -24.53,0 -44.81,9 -60.85,26.86 -16.03,17.87 -23.84,42.28 -23.57,72.97l168.15 0zm204.06 247.93l0 -585.88 112.65 0 0 585.88 -112.65 0zm228.45 -481.96l0 -103.92 112.65 0 0 103.92 -112.65 0zm0 481.96l0 -424.68 112.65 0 0 424.68 -112.65 0zm217.76 27l129.09 15.55c2.19,15.14 7.13,25.51 14.8,31.23 10.83,8.05 27.68,12.14 50.71,12.14 29.46,0 51.52,-4.36 66.32,-13.23 9.87,-5.86 17.41,-15.27 22.48,-28.36 3.43,-9.28 5.21,-26.6 5.21,-51.55l0.54 -62.06c-33.98,46.23 -76.74,69.28 -128.27,69.28 -57.28,0 -102.78,-24.14 -136.22,-72.28 -26.31,-38.05 -39.46,-85.51 -39.46,-142.11 0,-71.18 17.26,-125.46 51.66,-162.97 34.4,-37.5 77.29,-56.32 128.55,-56.32 52.76,0 96.34,23.05 130.6,69.14l0 -60.14 105.25 0 0 380.77c0,50.05 -4.11,87.55 -12.47,112.24 -8.23,24.82 -19.88,44.19 -34.95,58.37 -14.94,14.05 -34.95,25.23 -60.03,33.14 -25.07,8.04 -56.73,12 -94.97,12 -72.35,0 -123.61,-12.41 -153.89,-37.1 -30.29,-24.82 -45.36,-56.05 -45.36,-94.1 0,-3.68 0.13,-8.31 0.41,-13.64zm101.13 -247.93c0,45 8.77,77.87 26.18,98.74 17.54,20.86 39.19,31.36 64.82,31.36 27.41,0 50.71,-10.77 69.62,-32.18 19.04,-21.41 28.5,-53.05 28.5,-95.06 0,-43.91 -9.04,-76.5 -27.27,-97.78 -18.09,-21.28 -41.11,-31.91 -68.93,-31.91 -27,0 -49.2,10.5 -66.74,31.36 -17.41,20.87 -26.18,52.65 -26.18,95.47zm658.49 86.74l112.65 18.82c-14.39,41.05 -37.28,72.28 -68.38,93.83 -31.25,21.41 -70.31,32.18 -117.04,32.18 -74.14,0 -129.09,-24.14 -164.59,-72.42 -28.09,-38.73 -42.21,-87.55 -42.21,-146.6 0,-70.38 18.51,-125.61 55.37,-165.43 36.86,-39.96 83.6,-59.87 140.06,-59.87 63.31,0 113.33,20.86 150.06,62.6 36.59,41.73 54.13,105.69 52.49,191.88l-282.04 0c0.82,33.28 9.87,59.19 27.27,77.74 17.27,18.54 38.92,27.82 64.69,27.82 17.68,0 32.48,-4.77 44.4,-14.32 12.06,-9.55 21.1,-24.96 27.27,-46.23zm6.58 -113.74c-0.82,-32.6 -9.18,-57.42 -25.22,-74.33 -16.03,-17.05 -35.49,-25.5 -58.51,-25.5 -24.53,0 -44.82,9 -60.85,26.86 -16.03,17.87 -23.85,42.28 -23.57,72.97l168.15 0zm-224.48 -231.57l84.29 -117.84 103.87 0 83.19 117.84 -90.45 0 -46.46 -59.74 -43.16 59.74 -91.28 0zm816.64 479.5l-112.65 0 0 -216.43c0,-45.82 -2.47,-75.42 -7.26,-88.78 -4.94,-13.51 -12.75,-23.87 -23.71,-31.37 -10.96,-7.5 -24.12,-11.18 -39.47,-11.18 -19.73,0 -37.41,5.32 -53.04,15.95 -15.75,10.64 -26.44,24.82 -32.2,42.28 -5.89,17.59 -8.77,50.05 -8.77,97.51l0 192.02 -112.65 0 0 -424.68 104.43 0 0 62.32c37.41,-47.59 84.42,-71.32 141.29,-71.32 24.94,0 47.83,4.5 68.52,13.36 20.83,9 36.45,20.32 47.01,34.1 10.68,13.91 18.08,29.59 22.2,47.19 4.24,17.59 6.3,42.68 6.3,75.41l0 263.62zm485.81 -298.67l-111 19.64c-3.7,-21.96 -12.2,-38.46 -25.49,-49.64 -13.29,-11.05 -30.42,-16.64 -51.53,-16.64 -28.09,0 -50.57,9.68 -67.29,29.05 -16.72,19.37 -25.07,51.69 -25.07,97.1 0,50.46 8.49,86.06 25.49,106.92 16.99,20.87 39.74,31.23 68.24,31.23 21.38,0 38.92,-6.13 52.49,-18.27 13.7,-12.14 23.3,-33 28.92,-62.73l111 18.82c-11.51,50.73 -33.58,89.05 -66.19,114.96 -32.62,25.91 -76.33,38.87 -131.29,38.87 -62.22,0 -111.96,-19.64 -148.97,-58.78 -37.13,-39.28 -55.63,-93.56 -55.63,-162.97 0,-70.24 18.63,-124.79 55.77,-163.93 37.14,-39.14 87.44,-58.64 150.89,-58.64 51.8,0 93.05,11.18 123.75,33.41 30.56,22.23 52.48,56.05 65.91,101.6zm85.65 -183.29l0 -103.92 112.65 0 0 103.92 -112.65 0zm0 481.96l0 -424.68 112.65 0 0 424.68 -112.65 0zm312.32 -293.76l-101.96 -18c11.51,-41.46 31.39,-72.14 59.48,-92.05 28.09,-19.92 69.89,-29.87 125.26,-29.87 50.29,0 87.84,5.86 112.51,17.73 24.53,11.86 41.93,26.86 51.94,45.14 10,18.27 15.07,51.69 15.07,100.51l-1.64 130.92c0,37.23 1.78,64.78 5.34,82.51 3.57,17.73 10.28,36.69 20.15,56.87l-111.83 0c-2.88,-7.36 -6.58,-18.27 -10.82,-32.73 -1.79,-6.68 -3.16,-11.04 -3.98,-13.09 -19.19,18.82 -39.74,32.87 -61.67,42.28 -21.93,9.41 -45.22,14.18 -70.03,14.18 -43.71,0 -78.25,-11.87 -103.46,-35.59 -25.22,-23.6 -37.83,-53.6 -37.83,-89.88 0,-23.87 5.76,-45.28 17.27,-64.1 11.51,-18.68 27.55,-33.14 48.37,-43.09 20.7,-9.96 50.57,-18.69 89.63,-26.19 52.63,-9.82 89.22,-19.09 109.5,-27.55l0 -11.31c0,-21.82 -5.35,-37.37 -16.04,-46.78 -10.82,-9.28 -31.1,-13.91 -60.84,-13.91 -20.15,0 -35.77,3.95 -47.01,12 -11.37,7.91 -20.42,21.96 -27.41,42zm151.3 90.83c-14.39,4.77 -37.28,10.5 -68.66,17.18 -31.25,6.69 -51.8,13.23 -61.39,19.51 -14.67,10.5 -22.07,23.59 -22.07,39.55 0,15.82 5.89,29.32 17.68,40.77 11.78,11.46 26.72,17.19 44.95,17.19 20.28,0 39.74,-6.68 58.24,-19.91 13.57,-10.23 22.61,-22.51 26.86,-37.23 2.88,-9.55 4.39,-27.83 4.39,-54.69l0 -22.37zm841.99 202.93l-104.43 0 0 -62.32c-17.4,24.27 -38.1,42.41 -61.81,54.69 -23.71,12.13 -47.69,18.27 -71.81,18.27 -49.2,0 -91.27,-19.64 -126.35,-59.05 -34.95,-39.42 -52.49,-94.24 -52.49,-164.75 0,-72.01 17,-126.83 51.12,-164.33 34.12,-37.51 77.15,-56.19 129.23,-56.19 47.69,0 89.08,19.77 123.89,59.19l0 -211.39 112.65 0 0 585.88zm-300.95 -220.52c0,45.41 6.3,78.28 18.77,98.6 18.23,29.46 43.58,44.19 76.2,44.19 25.9,0 47.96,-11.05 66.05,-33.14 18.23,-22.1 27.28,-54.96 27.28,-98.88 0,-48.96 -8.77,-84.14 -26.45,-105.69 -17.68,-21.55 -40.16,-32.32 -67.7,-32.32 -26.72,0 -49.06,10.63 -67.15,31.91 -17.96,21.28 -27,53.05 -27,95.33zm495.68 -73.24l-101.96 -18c11.51,-41.46 31.38,-72.14 59.48,-92.05 28.09,-19.92 69.89,-29.87 125.25,-29.87 50.3,0 87.85,5.86 112.52,17.73 24.53,11.86 41.93,26.86 51.94,45.14 10,18.27 15.07,51.69 15.07,100.51l-1.65 130.92c0,37.23 1.79,64.78 5.35,82.51 3.56,17.73 10.28,36.69 20.14,56.87l-111.82 0c-2.88,-7.36 -6.58,-18.27 -10.83,-32.73 -1.78,-6.68 -3.15,-11.04 -3.97,-13.09 -19.19,18.82 -39.74,32.87 -61.67,42.28 -21.93,9.41 -45.22,14.18 -70.03,14.18 -43.72,0 -78.25,-11.87 -103.47,-35.59 -25.21,-23.6 -37.82,-53.6 -37.82,-89.88 0,-23.87 5.75,-45.28 17.27,-64.1 11.51,-18.68 27.54,-33.14 48.37,-43.09 20.7,-9.96 50.57,-18.69 89.63,-26.19 52.62,-9.82 89.21,-19.09 109.5,-27.55l0 -11.31c0,-21.82 -5.35,-37.37 -16.04,-46.78 -10.82,-9.28 -31.11,-13.91 -60.85,-13.91 -20.14,0 -35.76,3.95 -47,12 -11.37,7.91 -20.42,21.96 -27.41,42zm151.3 90.83c-14.39,4.77 -37.28,10.5 -68.66,17.18 -31.25,6.69 -51.81,13.23 -61.4,19.51 -14.66,10.5 -22.06,23.59 -22.06,39.55 0,15.82 5.89,29.32 17.68,40.77 11.78,11.46 26.72,17.19 44.95,17.19 20.28,0 39.74,-6.68 58.24,-19.91 13.57,-10.23 22.61,-22.51 26.86,-37.23 2.88,-9.55 4.39,-27.83 4.39,-54.69l0 -22.37zm451.41 -382.95l216.8 0c48.93,0 86.2,3.68 111.83,11.18 34.4,10.1 64,28.1 88.53,54.01 24.67,25.77 43.3,57.41 56.19,94.92 12.74,37.37 19.18,83.6 19.18,138.42 0,48.28 -6.03,89.74 -18.09,124.65 -14.66,42.69 -35.63,77.19 -62.9,103.51 -20.56,20.05 -48.38,35.6 -83.32,46.78 -26.18,8.32 -61.12,12.41 -104.97,12.41l-223.25 0 0 -585.88zm119.23 99.01l0 387.86 88.39 0c33.03,0 56.87,-1.91 71.54,-5.59 19.32,-4.77 35.22,-12.96 47.83,-24.41 12.74,-11.46 23.02,-30.28 30.97,-56.46 8.08,-26.19 12.06,-62.05 12.06,-107.33 0,-45.28 -3.98,-79.92 -12.06,-104.2 -7.95,-24.27 -19.19,-43.09 -33.58,-56.73 -14.39,-13.5 -32.61,-22.78 -54.82,-27.55 -16.44,-3.68 -48.92,-5.59 -97.16,-5.59l-53.17 0zm473.75 4.91l0 -103.92 112.65 0 0 103.92 -112.65 0zm0 481.96l0 -424.68 112.65 0 0 424.68 -112.65 0zm345.76 0l-171.99 -424.68 118.41 0 80.3 216.71 23.3 72.41c6.17,-18.41 10.14,-30.55 11.65,-36.41 3.84,-12 7.81,-24 12.2,-36l81.4 -216.71 115.94 0 -169.52 424.68 -101.69 0zm340 -481.96l0 -103.92 112.65 0 0 103.92 -112.65 0zm0 481.96l0 -424.68 112.65 0 0 424.68 -112.65 0zm619.85 0l-104.43 0 0 -62.32c-17.41,24.27 -38.1,42.41 -61.81,54.69 -23.7,12.13 -47.69,18.27 -71.81,18.27 -49.2,0 -91.27,-19.64 -126.35,-59.05 -34.95,-39.42 -52.49,-94.24 -52.49,-164.75 0,-72.01 17,-126.83 51.12,-164.33 34.12,-37.51 77.16,-56.19 129.23,-56.19 47.69,0 89.08,19.77 123.89,59.19l0 -211.39 112.65 0 0 585.88zm-300.95 -220.52c0,45.41 6.31,78.28 18.77,98.6 18.23,29.46 43.59,44.19 76.2,44.19 25.9,0 47.96,-11.05 66.06,-33.14 18.22,-22.1 27.27,-54.96 27.27,-98.88 0,-48.96 -8.77,-84.14 -26.45,-105.69 -17.68,-21.55 -40.16,-32.32 -67.7,-32.32 -26.73,0 -49.06,10.63 -67.15,31.91 -17.95,21.28 -27,53.05 -27,95.33zm495.68 -73.24l-101.96 -18c11.51,-41.46 31.38,-72.14 59.48,-92.05 28.09,-19.92 69.89,-29.87 125.26,-29.87 50.29,0 87.84,5.86 112.51,17.73 24.53,11.86 41.93,26.86 51.94,45.14 10,18.27 15.07,51.69 15.07,100.51l-1.64 130.92c0,37.23 1.78,64.78 5.34,82.51 3.56,17.73 10.28,36.69 20.15,56.87l-111.83 0c-2.88,-7.36 -6.58,-18.27 -10.83,-32.73 -1.78,-6.68 -3.15,-11.04 -3.97,-13.09 -19.19,18.82 -39.74,32.87 -61.67,42.28 -21.93,9.41 -45.22,14.18 -70.03,14.18 -43.71,0 -78.25,-11.87 -103.47,-35.59 -25.21,-23.6 -37.82,-53.6 -37.82,-89.88 0,-23.87 5.76,-45.28 17.27,-64.1 11.51,-18.68 27.54,-33.14 48.37,-43.09 20.7,-9.96 50.57,-18.69 89.63,-26.19 52.63,-9.82 89.22,-19.09 109.5,-27.55l0 -11.31c0,-21.82 -5.35,-37.37 -16.04,-46.78 -10.82,-9.28 -31.11,-13.91 -60.84,-13.91 -20.15,0 -35.77,3.95 -47.01,12 -11.37,7.91 -20.42,21.96 -27.41,42zm151.3 90.83c-14.39,4.77 -37.28,10.5 -68.66,17.18 -31.25,6.69 -51.8,13.23 -61.4,19.51 -14.66,10.5 -22.06,23.59 -22.06,39.55 0,15.82 5.89,29.32 17.68,40.77 11.78,11.46 26.72,17.19 44.95,17.19 20.28,0 39.74,-6.68 58.24,-19.91 13.57,-10.23 22.61,-22.51 26.86,-37.23 2.88,-9.55 4.39,-27.83 4.39,-54.69l0 -22.37zm951.21 202.93l-128.41 0 -50.84 -133.38 -236.13 0 -48.92 133.38 -126.08 0 228.58 -585.88 125.95 0 235.85 585.88zm-217.9 -232.39l-81.82 -216.84 -79.48 216.84 161.3 0zm475.4 -192.29l0 89.19 -77.29 0 0 171.97c0,34.92 0.68,55.24 2.19,60.96 1.51,5.73 4.8,10.51 10.14,14.32 5.21,3.69 11.51,5.6 19.05,5.6 10.55,0 25.63,-3.55 45.5,-10.78l9.45 87.29c-26.17,11.18 -55.77,16.77 -88.94,16.77 -20.28,0 -38.5,-3.41 -54.81,-10.23 -16.31,-6.82 -28.23,-15.68 -35.77,-26.46 -7.68,-10.91 -12.88,-25.5 -15.9,-44.05 -2.33,-13.09 -3.56,-39.55 -3.56,-79.51l0 -185.88 -51.8 0 0 -89.19 51.8 0 0 -84.28 112.65 -66.28 0 150.56 77.29 0zm78.94 -57.28l0 -103.92 112.64 0 0 103.92 -112.64 0zm0 481.96l0 -424.68 112.64 0 0 424.68 -112.64 0zm345.75 0l-171.99 -424.68 118.41 0 80.31 216.71 23.29 72.41c6.17,-18.41 10.14,-30.55 11.65,-36.41 3.84,-12 7.81,-24 12.2,-36l81.4 -216.71 115.94 0 -169.52 424.68 -101.69 0zm423.87 -293.76l-101.96 -18c11.52,-41.46 31.39,-72.14 59.48,-92.05 28.09,-19.92 69.89,-29.87 125.26,-29.87 50.29,0 87.84,5.86 112.51,17.73 24.53,11.86 41.93,26.86 51.94,45.14 10,18.27 15.07,51.69 15.07,100.51l-1.64 130.92c0,37.23 1.78,64.78 5.34,82.51 3.57,17.73 10.28,36.69 20.15,56.87l-111.83 0c-2.88,-7.36 -6.58,-18.27 -10.82,-32.73 -1.79,-6.68 -3.16,-11.04 -3.98,-13.09 -19.18,18.82 -39.74,32.87 -61.67,42.28 -21.92,9.41 -45.22,14.18 -70.03,14.18 -43.71,0 -78.25,-11.87 -103.46,-35.59 -25.22,-23.6 -37.83,-53.6 -37.83,-89.88 0,-23.87 5.76,-45.28 17.27,-64.1 11.51,-18.68 27.55,-33.14 48.38,-43.09 20.69,-9.96 50.57,-18.69 89.62,-26.19 52.63,-9.82 89.22,-19.09 109.5,-27.55l0 -11.31c0,-21.82 -5.34,-37.37 -16.04,-46.78 -10.82,-9.28 -31.1,-13.91 -60.84,-13.91 -20.15,0 -35.77,3.95 -47.01,12 -11.37,7.91 -20.42,21.96 -27.41,42zm151.3 90.83c-14.39,4.77 -37.28,10.5 -68.66,17.18 -31.25,6.69 -51.8,13.23 -61.39,19.51 -14.67,10.5 -22.07,23.59 -22.07,39.55 0,15.82 5.9,29.32 17.68,40.77 11.79,11.46 26.72,17.19 44.95,17.19 20.28,0 39.74,-6.68 58.24,-19.91 13.57,-10.23 22.62,-22.51 26.86,-37.23 2.88,-9.55 4.39,-27.83 4.39,-54.69l0 -22.37z"/>
   </g>
   <g>
    <path class="fil2" d="M8961.89 4924.57l238.89 -417.31 238.89 -417.31 477.78 0 477.78 0 238.89 417.31 238.89 417.31 -238.89 417.32 -238.89 417.31 -477.78 -0.01 -477.78 0 -238.89 -417.31 -238.89 -417.31zm955.56 -378.47c209.02,0 378.47,169.45 378.47,378.47 0,209.02 -169.45,378.47 -378.47,378.47 -209.02,0 -378.47,-169.45 -378.47,-378.47 0,-209.02 169.45,-378.47 378.47,-378.47zm0 175.81c111.92,0 202.66,90.74 202.66,202.66 0,111.93 -90.74,202.66 -202.66,202.66 -111.93,0 -202.66,-90.73 -202.66,-202.66 0,-111.92 90.73,-202.66 202.66,-202.66z"/>
    <path class="fil3" d="M7274.55 8547.16l238.89 -417.31 238.89 -417.31 477.78 0 477.78 0 238.89 417.31 238.89 417.31 -238.89 417.32 -238.89 417.31 -477.78 0 -477.78 0 -238.89 -417.31 -238.89 -417.32zm955.56 -378.46c209.02,0 378.47,169.44 378.47,378.47 0,209.02 -169.45,378.47 -378.47,378.47 -209.02,0 -378.47,-169.45 -378.47,-378.47 0,-209.03 169.45,-378.47 378.47,-378.47zm0 175.81c111.92,0 202.66,90.73 202.66,202.66 0,111.92 -90.74,202.65 -202.66,202.65 -111.92,0 -202.66,-90.73 -202.66,-202.65 0,-111.93 90.74,-202.66 202.66,-202.66z"/>
    <path class="fil4" d="M15574.95 11858.35l238.89 -417.31 238.89 -417.31 477.78 0 477.78 0 238.89 417.31 238.89 417.31 -238.89 417.32 -238.89 417.31 -477.78 0 -477.78 0 -238.89 -417.31 -238.89 -417.32zm955.56 -378.46c209.02,0 378.47,169.44 378.47,378.47 0,209.02 -169.45,378.47 -378.47,378.47 -209.02,0 -378.47,-169.45 -378.47,-378.47 0,-209.03 169.45,-378.47 378.47,-378.47zm0 175.81c111.92,0 202.66,90.73 202.66,202.66 0,111.92 -90.74,202.65 -202.66,202.65 -111.93,0 -202.66,-90.73 -202.66,-202.65 0,-111.93 90.73,-202.66 202.66,-202.66z"/>
    <path class="fil5" d="M19308.73 8903.08l238.89 -417.32 238.9 -417.31 477.78 0 477.78 0 238.89 417.31 238.89 417.32 -238.89 417.31 -238.9 417.31 -477.77 0 -477.78 0 -238.9 -417.31 -238.89 -417.31zm955.57 -378.47c209.02,0 378.47,169.44 378.47,378.47 0,209.02 -169.45,378.47 -378.47,378.47 -209.03,0 -378.48,-169.45 -378.48,-378.47 0,-209.03 169.45,-378.47 378.48,-378.47zm0 175.81c111.92,0 202.65,90.73 202.65,202.66 0,111.92 -90.73,202.65 -202.65,202.65 -111.93,0 -202.66,-90.73 -202.66,-202.65 0,-111.93 90.73,-202.66 202.66,-202.66z"/>
    <path class="fil6" d="M20379.7 7098.05l238.89 -417.32 238.89 -417.31 477.78 0 477.78 0 238.89 417.31 238.89 417.32 -238.89 417.31 -238.89 417.31 -477.78 0 -477.78 0 -238.89 -417.31 -238.89 -417.31zm955.56 -378.47c209.02,0 378.47,169.44 378.47,378.47 0,209.02 -169.45,378.47 -378.47,378.47 -209.02,0 -378.47,-169.45 -378.47,-378.47 0,-209.03 169.45,-378.47 378.47,-378.47zm0 175.81c111.92,0 202.66,90.73 202.66,202.66 0,111.92 -90.74,202.66 -202.66,202.66 -111.93,0 -202.66,-90.74 -202.66,-202.66 0,-111.93 90.73,-202.66 202.66,-202.66z"/>
    <path class="fil7" d="M15571.69 3475.46l238.89 -417.32 238.89 -417.31 477.78 0 477.78 0 238.89 417.31 238.89 417.32 -238.89 417.31 -238.89 417.31 -477.78 0 -477.78 0 -238.89 -417.31 -238.89 -417.31zm955.56 -378.47c209.02,0 378.47,169.45 378.47,378.47 0,209.02 -169.45,378.47 -378.47,378.47 -209.03,0 -378.47,-169.45 -378.47,-378.47 0,-209.02 169.44,-378.47 378.47,-378.47zm0 175.81c111.92,0 202.66,90.73 202.66,202.66 0,111.92 -90.74,202.66 -202.66,202.66 -111.93,0 -202.66,-90.74 -202.66,-202.66 0,-111.93 90.73,-202.66 202.66,-202.66z"/>
    <path class="fil8" d="M13611.16 2182.4l204.63 -357.48 204.64 -357.47 409.27 0 409.28 0 204.63 357.48 204.64 357.47 -204.64 357.48 -204.64 357.47 -409.27 0 -409.27 0 -204.64 -357.47 -204.63 -357.48zm818.54 -324.2c179.05,0 324.21,145.15 324.21,324.2 0,179.05 -145.16,324.2 -324.21,324.2 -179.05,0 -324.2,-145.15 -324.2,-324.2 0,-179.05 145.15,-324.2 324.2,-324.2zm0 150.6c95.88,0 173.6,77.73 173.6,173.6 0,95.88 -77.72,173.6 -173.6,173.6 -95.87,0 -173.6,-77.72 -173.6,-173.6 0,-95.87 77.73,-173.6 173.6,-173.6z"/>
    <path class="fil9" d="M18763.64 3383.53l62.99 -90.27c16.24,-23.26 1687.95,1617.89 1829.68,1754.98 386.18,373.51 386.18,373.51 199.42,561.33 -186.75,187.81 -560.26,563.43 -749.13,751.24 -188.87,187.81 -193.09,187.81 -204.69,183.59 -11.61,-4.22 -30.6,-12.66 -41.15,-26.38 -10.55,-13.72 -12.66,-32.71 -10.56,-49.59 2.12,-16.88 8.45,-31.65 182.54,-202.58 174.09,-170.93 515.95,-498.02 686.88,-661.56 170.93,-163.54 170.93,-163.54 -202.58,-524.39 -373.51,-360.85 -1238.92,-1194.55 -1494.04,-1443.4l-259.36 -252.97z"/>
    <path class="fil10" d="M21304.83 9720.93c248.53,0 450.01,201.48 450.01,450.01 0,248.53 -201.48,450.01 -450.01,450.01 -248.53,0 -450.01,-201.48 -450.01,-450.01 0,-248.53 201.48,-450.01 450.01,-450.01zm0 244.76c113.36,0 205.26,91.89 205.26,205.25 0,113.36 -91.9,205.26 -205.26,205.26 -113.36,0 -205.25,-91.9 -205.25,-205.26 0,-113.36 91.89,-205.25 205.25,-205.25z"/>
    <path class="fil10" d="M21577.83 5135.99c199.32,0 360.91,161.58 360.91,360.91 0,199.32 -161.59,360.9 -360.91,360.9 -199.32,0 -360.91,-161.58 -360.91,-360.9 0,-199.33 161.59,-360.91 360.91,-360.91z"/>
    <path class="fil10" d="M10172.67 10816.06c230.96,0 418.19,187.23 418.19,418.19 0,230.96 -187.23,418.18 -418.19,418.18 -230.96,0 -418.18,-187.22 -418.18,-418.18 0,-230.96 187.22,-418.19 418.18,-418.19zm0 227.45c105.35,0 190.74,85.4 190.74,190.74 0,105.34 -85.39,190.74 -190.74,190.74 -105.34,0 -190.74,-85.4 -190.74,-190.74 0,-105.34 85.4,-190.74 190.74,-190.74z"/>
    <path class="fil10" d="M9945.71 2986.67c112.34,0 203.41,91.07 203.41,203.41 0,112.34 -91.07,203.41 -203.41,203.41 -112.34,0 -203.41,-91.07 -203.41,-203.41 0,-112.34 91.07,-203.41 203.41,-203.41z"/>
    <path class="fil10" d="M18960.55 4573.83c329.57,0 596.75,267.17 596.75,596.75 0,329.58 -267.18,596.75 -596.75,596.75 -329.58,0 -596.75,-267.17 -596.75,-596.75 0,-329.58 267.17,-596.75 596.75,-596.75zm0 446.43c83.02,0 150.31,67.3 150.31,150.32 0,83.02 -67.29,150.32 -150.31,150.32 -83.02,0 -150.32,-67.3 -150.32,-150.32 0,-83.02 67.3,-150.32 150.32,-150.32zm0 -121.87c150.32,0 272.18,121.86 272.18,272.19 0,150.32 -121.86,272.19 -272.18,272.19 -150.33,0 -272.19,-121.87 -272.19,-272.19 0,-150.33 121.86,-272.19 272.19,-272.19z"/>
    <path class="fil10" d="M18290.9 2433.34c329.57,0 596.75,267.18 596.75,596.75 0,329.58 -267.18,596.75 -596.75,596.75 -329.58,0 -596.75,-267.17 -596.75,-596.75 0,-329.57 267.17,-596.75 596.75,-596.75zm0 324.57c150.32,0 272.18,121.86 272.18,272.18 0,150.33 -121.86,272.19 -272.18,272.19 -150.33,0 -272.19,-121.86 -272.19,-272.19 0,-150.32 121.86,-272.18 272.19,-272.18z"/>
    <path class="fil9" d="M10645.27 11902.24l238.89 -417.32 238.9 -417.31 477.77 0 477.78 0 238.89 417.32 238.89 417.31 -238.89 417.31 -238.89 417.31 -477.78 0 -477.78 0 -238.89 -417.31 -238.89 -417.31zm955.56 -378.47c209.03,0 378.47,169.45 378.47,378.47 0,209.02 -169.44,378.47 -378.47,378.47 -209.02,0 -378.47,-169.45 -378.47,-378.47 0,-209.02 169.45,-378.47 378.47,-378.47zm0 175.81c111.93,0 202.66,90.74 202.66,202.66 0,111.92 -90.73,202.66 -202.66,202.66 -111.92,0 -202.65,-90.74 -202.65,-202.66 0,-111.92 90.73,-202.66 202.65,-202.66z"/>
    <path class="fil9" d="M8115.99 9786.9c279.67,0 506.39,226.72 506.39,506.39 0,279.67 -226.72,506.39 -506.39,506.39 -279.67,0 -506.39,-226.72 -506.39,-506.39 0,-279.67 226.72,-506.39 506.39,-506.39zm0 275.42c127.56,0 230.97,103.41 230.97,230.97 0,127.56 -103.41,230.97 -230.97,230.97 -127.56,0 -230.97,-103.41 -230.97,-230.97 0,-127.56 103.41,-230.97 230.97,-230.97z"/>
    <path class="fil9" d="M7027.01 5631.32c238.71,0 432.23,193.51 432.23,432.22 0,238.72 -193.52,432.23 -432.23,432.23 -17.53,0 -34.8,-1.07 -51.77,-3.09l0 2126.53c75.68,26.04 130.06,97.84 130.06,182.36 0,106.49 -86.33,192.82 -192.82,192.82 -106.48,0 -192.81,-86.33 -192.81,-192.82 0,-84.51 54.38,-156.32 130.06,-182.36l0 -2161.36c-150.31,-67.67 -254.95,-218.77 -254.95,-394.31 0,-238.71 193.51,-432.22 432.23,-432.22zm0 235.08c108.88,0 197.14,88.26 197.14,197.14 0,108.89 -88.26,197.15 -197.14,197.15 -108.88,0 -197.15,-88.26 -197.15,-197.15 0,-108.88 88.27,-197.14 197.15,-197.14z"/>
    <path class="fil9" d="M17650.08 4201.82c274.89,0 497.73,222.84 497.73,497.73 0,274.89 -222.84,497.73 -497.73,497.73 -274.88,0 -497.72,-222.84 -497.72,-497.73 0,-274.89 222.84,-497.73 497.72,-497.73zm0 186.44c171.92,0 311.29,139.37 311.29,311.29 0,171.92 -139.37,311.29 -311.29,311.29 -171.92,0 -311.29,-139.37 -311.29,-311.29 0,-171.92 139.37,-311.29 311.29,-311.29z"/>
    <path class="fil11" d="M8997.16 2395.76c72.9,0 132,59.09 132,131.99 0,72.89 -59.1,131.99 -132,131.99 -72.89,0 -131.99,-59.1 -131.99,-131.99 0,-72.9 59.1,-131.99 131.99,-131.99z"/>
    <path class="fil12" d="M15791.16 2183.36c96.12,0 174.05,77.93 174.05,174.05 0,96.12 -77.93,174.05 -174.05,174.05 -96.12,0 -174.05,-77.93 -174.05,-174.05 0,-96.12 77.93,-174.05 174.05,-174.05z"/>
    <path class="fil12" d="M8962.82 12817.63c97.95,0 177.36,79.41 177.36,177.37 0,97.95 -79.41,177.36 -177.36,177.36 -97.96,0 -177.37,-79.41 -177.37,-177.36 0,-97.96 79.41,-177.37 177.37,-177.37z"/>
    <path class="fil12" d="M6989.83 9224.64c219.03,0 396.59,177.56 396.59,396.59 0,219.03 -177.56,396.59 -396.59,396.59 -219.03,0 -396.59,-177.56 -396.59,-396.59 0,-219.03 177.56,-396.59 396.59,-396.59z"/>
    <path class="fil12" d="M11602.62 13042.99c117.49,0 212.73,95.24 212.73,212.73 0,117.48 -95.24,212.72 -212.73,212.72 -117.48,0 -212.72,-95.24 -212.72,-212.72 0,-117.49 95.24,-212.73 212.72,-212.73z"/>
    <path class="fil9" d="M8203.41 5064.22c139.05,0 251.76,112.72 251.76,251.76 0,139.05 -112.71,251.76 -251.76,251.76 -139.04,0 -251.76,-112.71 -251.76,-251.76 0,-139.04 112.72,-251.76 251.76,-251.76z"/>
    <path class="fil12" d="M19400.58 2780.22c111.28,0 201.49,90.21 201.49,201.49 0,111.27 -90.21,201.49 -201.49,201.49 -111.28,0 -201.49,-90.22 -201.49,-201.49 0,-111.28 90.21,-201.49 201.49,-201.49z"/>
    <path class="fil11" d="M8598.83 2425.85c56.27,0 101.89,45.62 101.89,101.9 0,56.27 -45.62,101.9 -101.89,101.9 -56.28,0 -101.9,-45.63 -101.9,-101.9 0,-56.28 45.62,-101.9 101.9,-101.9z"/>
    <path class="fil11" d="M8266.88 2425.85c56.27,0 101.89,45.62 101.89,101.9 0,56.27 -45.62,101.9 -101.89,101.9 -56.28,0 -101.9,-45.63 -101.9,-101.9 0,-56.28 45.62,-101.9 101.9,-101.9z"/>
    <path class="fil11" d="M7709.02 3100.48c44.53,0 80.63,36.1 80.63,80.63 0,44.53 -36.1,80.63 -80.63,80.63 -44.53,0 -80.63,-36.1 -80.63,-80.63 0,-44.53 36.1,-80.63 80.63,-80.63z"/>
    <path class="fil11" d="M7320.67 3110.47c39.02,0 70.64,31.63 70.64,70.64 0,39.02 -31.62,70.65 -70.64,70.65 -39.01,0 -70.64,-31.63 -70.64,-70.65 0,-39.01 31.63,-70.64 70.64,-70.64z"/>
    <path class="fil11" d="M7211.07 3498.7c32.8,0 59.39,26.59 59.39,59.39 0,32.8 -26.59,59.38 -59.39,59.38 -32.8,0 -59.38,-26.58 -59.38,-59.38 0,-32.8 26.58,-59.39 59.38,-59.39z"/>
    <path class="fil11" d="M7476.63 3505.44c29.08,0 52.65,23.57 52.65,52.65 0,29.07 -23.57,52.64 -52.65,52.64 -29.07,0 -52.64,-23.57 -52.64,-52.64 0,-29.08 23.57,-52.65 52.64,-52.65z"/>
    <path class="fil11" d="M7767.27 3521.68c24.59,0 44.52,19.94 44.52,44.53 0,24.59 -19.93,44.52 -44.52,44.52 -24.59,0 -44.53,-19.93 -44.53,-44.52 0,-24.59 19.94,-44.53 44.53,-44.53z"/>
    <path class="fil11" d="M6937.39 3521.68c24.59,0 44.53,19.94 44.53,44.53 0,24.59 -19.94,44.52 -44.53,44.52 -24.59,0 -44.52,-19.93 -44.52,-44.52 0,-24.59 19.93,-44.53 44.52,-44.53z"/>
    <path class="fil11" d="M7767.27 3886.83c24.59,0 44.52,19.93 44.52,44.52 0,24.59 -19.93,44.53 -44.52,44.53 -24.59,0 -44.53,-19.94 -44.53,-44.53 0,-24.59 19.94,-44.52 44.53,-44.52z"/>
    <path class="fil11" d="M7236.15 3886.83c24.59,0 44.52,19.93 44.52,44.52 0,24.59 -19.93,44.53 -44.52,44.53 -24.59,0 -44.53,-19.94 -44.53,-44.53 0,-24.59 19.94,-44.52 44.53,-44.52z"/>
    <path class="fil11" d="M7501.71 3886.83c24.59,0 44.52,19.93 44.52,44.52 0,24.59 -19.93,44.53 -44.52,44.53 -24.59,0 -44.53,-19.94 -44.53,-44.53 0,-24.59 19.94,-44.52 44.53,-44.52z"/>
    <path class="fil13" d="M20316.59 11088.84c113.4,0 205.32,91.93 205.32,205.32 0,113.4 -91.92,205.32 -205.32,205.32 -113.39,0 -205.32,-91.92 -205.32,-205.32 0,-113.39 91.93,-205.32 205.32,-205.32z"/>
    <path class="fil9" d="M13337.77 1645.76c115.51,0 209.15,93.64 209.15,209.15 0,115.5 -93.64,209.14 -209.15,209.14 -115.5,0 -209.14,-93.64 -209.14,-209.14 0,-115.51 93.64,-209.15 209.14,-209.15z"/>
    <path class="fil9" d="M10334.48 3502.96c115.5,0 209.14,93.63 209.14,209.14 0,115.51 -93.64,209.14 -209.14,209.14 -115.51,0 -209.15,-93.63 -209.15,-209.14 0,-115.51 93.64,-209.14 209.15,-209.14z"/>
    <path class="fil9" d="M9336.26 3444.4c81.68,0 147.9,66.21 147.9,147.89 0,81.68 -66.22,147.89 -147.9,147.89 -81.67,0 -147.89,-66.21 -147.89,-147.89 0,-81.68 66.22,-147.89 147.89,-147.89z"/>
    <path class="fil9" d="M8734.42 3826.77c133.26,0 241.29,108.03 241.29,241.29 0,133.25 -108.03,241.28 -241.29,241.28 -133.26,0 -241.29,-108.03 -241.29,-241.28 0,-133.26 108.03,-241.29 241.29,-241.29z"/>
    <path class="fil9" d="M10827.79 3944.33c81.68,0 147.9,66.21 147.9,147.89 0,81.68 -66.22,147.9 -147.9,147.9 -81.68,0 -147.89,-66.22 -147.89,-147.9 0,-81.68 66.21,-147.89 147.89,-147.89z"/>
    <path class="fil9" d="M11812.4 3911.33c81.68,0 147.9,66.21 147.9,147.89 0,81.68 -66.22,147.89 -147.9,147.89 -81.68,0 -147.89,-66.21 -147.89,-147.89 0,-81.68 66.21,-147.89 147.89,-147.89z"/>
    <path class="fil9" d="M11834.4 4466.89c81.68,0 147.9,66.21 147.9,147.89 0,81.68 -66.22,147.89 -147.9,147.89 -81.67,0 -147.89,-66.21 -147.89,-147.89 0,-81.68 66.22,-147.89 147.89,-147.89z"/>
    <path class="fil9" d="M11834.4 5088.46c81.68,0 147.9,66.21 147.9,147.89 0,81.68 -66.22,147.89 -147.9,147.89 -81.67,0 -147.89,-66.21 -147.89,-147.89 0,-81.68 66.22,-147.89 147.89,-147.89z"/>
    <path class="fil9" d="M13520.65 2882.71c107.68,0 194.97,87.29 194.97,194.96 0,79.08 -47.09,147.17 -114.76,177.75l0 1163.73 -141.58 0 0 -1156.39c-77.6,-25.72 -133.59,-98.86 -133.59,-185.09 0,-107.67 87.29,-194.96 194.96,-194.96z"/>
    <path class="fil13" d="M12857.52 2899.85c75.25,0 136.25,61.01 136.25,136.25 0,75.25 -61,136.25 -136.25,136.25 -75.25,0 -136.25,-61 -136.25,-136.25 0,-75.24 61,-136.25 136.25,-136.25z"/>
    <path class="fil9" d="M15272.56 2891.46c115.5,0 209.14,93.64 209.14,209.14 0,115.51 -93.64,209.15 -209.14,209.15 -115.51,0 -209.15,-93.64 -209.15,-209.15 0,-115.5 93.64,-209.14 209.15,-209.14z"/>
    <path class="fil9" d="M17414.68 1898.32c173.63,0 314.38,140.75 314.38,314.37 0,173.63 -140.75,314.38 -314.38,314.38 -173.62,0 -314.37,-140.75 -314.37,-314.38 0,-173.62 140.75,-314.37 314.37,-314.37z"/>
    <path class="fil9" d="M15477.77 1531.9c81.61,0 147.77,66.16 147.77,147.77 0,81.61 -66.16,147.77 -147.77,147.77 -81.61,0 -147.77,-66.16 -147.77,-147.77 0,-81.61 66.16,-147.77 147.77,-147.77z"/>
    <path class="fil9" d="M17777.74 3673.99c81.61,0 147.77,66.16 147.77,147.78 0,81.61 -66.16,147.77 -147.77,147.77 -81.62,0 -147.78,-66.16 -147.78,-147.77 0,-81.62 66.16,-147.78 147.78,-147.78z"/>
    <path class="fil9" d="M15813.98 4279.07c81.61,0 147.77,66.16 147.77,147.77 0,81.62 -66.16,147.78 -147.77,147.78 -81.61,0 -147.77,-66.16 -147.77,-147.78 0,-81.61 66.16,-147.77 147.77,-147.77z"/>
    <path class="fil9" d="M18700.8 3937.2c81.61,0 147.77,66.16 147.77,147.78 0,81.61 -66.16,147.77 -147.77,147.77 -81.62,0 -147.78,-66.16 -147.78,-147.77 0,-81.62 66.16,-147.78 147.78,-147.78z"/>
    <path class="fil9" d="M21089.38 4226.96c152.2,0 275.57,123.37 275.57,275.57 0,152.19 -123.37,275.56 -275.57,275.56 -152.19,0 -275.56,-123.37 -275.56,-275.56 0,-152.2 123.37,-275.57 275.56,-275.57z"/>
    <path class="fil9" d="M16819.5 4747.23c81.61,0 147.77,66.16 147.77,147.77 0,81.61 -66.16,147.77 -147.77,147.77 -81.61,0 -147.77,-66.16 -147.77,-147.77 0,-81.61 66.16,-147.77 147.77,-147.77z"/>
    <path class="fil9" d="M17122.05 5396.1c110.87,0 200.74,89.88 200.74,200.75 0,110.87 -89.87,200.75 -200.74,200.75 -110.87,0 -200.75,-89.88 -200.75,-200.75 0,-110.87 89.88,-200.75 200.75,-200.75z"/>
    <path class="fil9" d="M9011.17 5676.56c86.93,0 157.39,70.47 157.39,157.39 0,86.93 -70.46,157.39 -157.39,157.39 -86.92,0 -157.39,-70.46 -157.39,-157.39 0,-86.92 70.47,-157.39 157.39,-157.39z"/>
    <path class="fil9" d="M8992.27 7221.61c108.18,0 195.89,87.71 195.89,195.89 0,65.31 -31.96,123.13 -81.09,158.73 4.7,2.42 8.85,7.67 18.89,20.36 17.11,21.65 51.34,64.95 87.18,106.71 35.84,41.76 73.29,81.99 96.87,104.87 23.58,22.89 33.29,28.44 45.78,32.6 12.48,4.16 27.74,6.94 79.06,10.41 51.33,3.46 138.72,7.62 522.96,9.71 384.23,2.08 1065.32,2.08 1405.86,2.08 340.55,0 340.55,0 341.24,19.42 0.69,19.42 2.08,58.26 2.78,77.68 0.69,19.42 0.69,19.42 -43,20.11 -43.7,0.69 -131.09,2.08 -536.14,0.7 -405.04,-1.39 -1127.74,-5.55 -1489.09,-7.63 -361.36,-2.09 -361.36,-2.09 -421,-69.36 -59.65,-67.28 -178.94,-201.83 -238.59,-269.11 -8.29,-9.34 -15.42,-17.39 -21.52,-24.32 -92.02,-16.06 -161.97,-96.34 -161.97,-192.96 0,-108.18 87.7,-195.89 195.89,-195.89z"/>
    <path class="fil9" d="M11313.42 7234.67c72.92,0 132.03,59.11 132.03,132.02 0,72.92 -59.11,132.02 -132.03,132.02 -72.91,0 -132.02,-59.1 -132.02,-132.02 0,-72.91 59.11,-132.02 132.02,-132.02z"/>
    <path class="fil9" d="M17461.4 8617.01c72.91,0 132.02,59.11 132.02,132.02 0,72.91 -59.11,132.02 -132.02,132.02 -72.92,0 -132.03,-59.11 -132.03,-132.02 0,-72.91 59.11,-132.02 132.03,-132.02z"/>
    <path class="fil9" d="M17854.61 8884.83c105.21,0 190.5,85.28 190.5,190.49 0,105.2 -85.29,190.49 -190.5,190.49 -105.2,0 -190.48,-85.29 -190.48,-190.49 0,-105.21 85.28,-190.49 190.48,-190.49z"/>
    <path class="fil9" d="M22740.73 6980.41c156.7,0 283.73,127.03 283.73,283.73 0,156.7 -127.03,283.73 -283.73,283.73 -156.7,0 -283.73,-127.03 -283.73,-283.73 0,-95.96 47.64,-180.78 120.55,-232.13l0 -366.7 117.74 0 0 318.74c14.8,-2.38 29.97,-3.64 45.44,-3.64z"/>
    <path class="fil9" d="M21629.88 11074.79c156.7,0 283.74,127.04 283.74,283.74 0,156.7 -127.04,283.73 -283.74,283.73 -156.7,0 -283.73,-127.03 -283.73,-283.73 0,-156.7 127.03,-283.74 283.73,-283.74z"/>
    <path class="fil9" d="M22326.96 10200.68c156.7,0 283.74,127.03 283.74,283.73 0,156.7 -127.04,283.73 -283.74,283.73 -156.7,0 -283.73,-127.03 -283.73,-283.73 0,-156.7 127.03,-283.73 283.73,-283.73z"/>
    <path class="fil9" d="M19405.87 10090.03c156.7,0 283.73,127.03 283.73,283.73 0,156.71 -127.03,283.74 -283.73,283.74 -156.7,0 -283.73,-127.03 -283.73,-283.74 0,-156.7 127.03,-283.73 283.73,-283.73z"/>
    <path class="fil9" d="M21399.99 8266.15c66.23,0 119.92,53.69 119.92,119.92 0,66.23 -53.69,119.92 -119.92,119.92 -66.23,0 -119.91,-53.69 -119.91,-119.92 0,-66.23 53.68,-119.92 119.91,-119.92z"/>
    <path class="fil9" d="M22682.78 11523.53c90.4,0 163.69,73.28 163.69,163.69 0,90.4 -73.29,163.69 -163.69,163.69 -90.4,0 -163.69,-73.29 -163.69,-163.69 0,-90.41 73.29,-163.69 163.69,-163.69z"/>
    <path class="fil9" d="M17717.98 12232.02c179.14,0 324.36,145.22 324.36,324.36 0,179.13 -145.22,324.35 -324.36,324.35 -179.13,0 -324.35,-145.22 -324.35,-324.35 0,-179.14 145.22,-324.36 324.35,-324.36z"/>
    <path class="fil9" d="M18575.72 12549.1c179.14,0 324.36,145.22 324.36,324.36 0,179.14 -145.22,324.36 -324.36,324.36 -179.14,0 -324.36,-145.22 -324.36,-324.36 0,-179.14 145.22,-324.36 324.36,-324.36z"/>
    <path class="fil9" d="M13459.27 13044.11c108.19,0 195.89,87.71 195.89,195.9 0,108.18 -87.7,195.88 -195.89,195.88 -108.19,0 -195.89,-87.7 -195.89,-195.88 0,-108.19 87.7,-195.9 195.89,-195.9z"/>
    <path class="fil9" d="M14409.16 12693.76c108.19,0 195.89,87.7 195.89,195.89 0,108.18 -87.7,195.89 -195.89,195.89 -108.18,0 -195.89,-87.71 -195.89,-195.89 0,-108.19 87.71,-195.89 195.89,-195.89z"/>
    <path class="fil9" d="M15707.47 12985.33c108.19,0 195.89,87.7 195.89,195.89 0,108.18 -87.7,195.89 -195.89,195.89 -108.19,0 -195.89,-87.71 -195.89,-195.89 0,-108.19 87.7,-195.89 195.89,-195.89z"/>
    <path class="fil9" d="M16461.15 13137.21c91.15,0 165.04,73.89 165.04,165.04 0,91.14 -73.89,165.03 -165.04,165.03 -91.15,0 -165.04,-73.89 -165.04,-165.03 0,-91.15 73.89,-165.04 165.04,-165.04z"/>
    <path class="fil9" d="M15366.39 12543.06c91.15,0 165.04,73.89 165.04,165.04 0,91.15 -73.89,165.04 -165.04,165.04 -91.15,0 -165.04,-73.89 -165.04,-165.04 0,-91.15 73.89,-165.04 165.04,-165.04z"/>
    <path class="fil9" d="M15289.37 11888.41c112.42,0 203.55,91.13 203.55,203.54 0,112.42 -91.13,203.55 -203.55,203.55 -112.42,0 -203.55,-91.13 -203.55,-203.55 0,-112.41 91.13,-203.54 203.55,-203.54z"/>
    <path class="fil9" d="M10750.79 12895.15c133.69,0 242.06,108.37 242.06,242.05 0,133.69 -108.37,242.06 -242.06,242.06 -133.68,0 -242.05,-108.37 -242.05,-242.06 0,-133.68 108.37,-242.05 242.05,-242.05z"/>
    <path class="fil9" d="M13583.12 11875.29c102.03,28.46 176.89,122.07 176.89,233.17 0,133.68 -108.37,242.06 -242.06,242.06 -133.68,0 -242.06,-108.38 -242.06,-242.06 0,-112.43 76.66,-206.95 180.56,-234.17l0 -647.59c-119.24,-27.82 -208.06,-134.79 -208.06,-262.51 0,-127.72 88.82,-234.68 208.06,-262.51l0 -905.74 126.67 0 0 906.64c117.39,29.14 204.4,135.21 204.4,261.61 0,126.4 -87.01,232.47 -204.4,261.61l0 649.49zm1640.37 -2130.02l126.67 0 0 2387.71 -126.67 0 0 -2387.71zm-1171.69 158.34l126.67 0 0 2229.38 -126.67 0 0 -2229.38zm576.34 6.33l126.67 0 0 2229.38 -126.67 0 0 -2229.38z"/>
    <path class="fil9" d="M15808.7 10603.31c91.14,0 165.03,73.89 165.03,165.03 0,91.15 -73.89,165.04 -165.03,165.04 -91.15,0 -165.04,-73.89 -165.04,-165.04 0,-91.14 73.89,-165.03 165.04,-165.03z"/>
    <path class="fil9" d="M16485.63 10407.18c91.15,0 165.04,73.89 165.04,165.04 0,91.15 -73.89,165.04 -165.04,165.04 -91.15,0 -165.04,-73.89 -165.04,-165.04 0,-91.15 73.89,-165.04 165.04,-165.04z"/>
    <path class="fil9" d="M15852.43 9946.17c112.42,0 203.55,91.13 203.55,203.55 0,112.41 -91.13,203.55 -203.55,203.55 -112.42,0 -203.55,-91.14 -203.55,-203.55 0,-112.42 91.13,-203.55 203.55,-203.55z"/>
    <path class="fil9" d="M12297.67 10625.18c92.17,0 166.88,74.71 166.88,166.87 0,92.17 -74.71,166.88 -166.88,166.88 -92.16,0 -166.87,-74.71 -166.87,-166.88 0,-92.16 74.71,-166.87 166.87,-166.87z"/>
    <path class="fil9" d="M10979.05 10596.64c92.16,0 166.87,74.71 166.87,166.88 0,92.16 -74.71,166.87 -166.87,166.87 -92.17,0 -166.88,-74.71 -166.88,-166.87 0,-92.17 74.71,-166.88 166.88,-166.88z"/>
    <path class="fil9" d="M9281.21 11570.82c92.16,0 166.88,74.71 166.88,166.88 0,92.16 -74.72,166.87 -166.88,166.87 -92.16,0 -166.88,-74.71 -166.88,-166.87 0,-92.17 74.72,-166.88 166.88,-166.88z"/>
    <path class="fil9" d="M8830.09 12131.97c92.17,0 166.88,74.71 166.88,166.87 0,92.17 -74.71,166.88 -166.88,166.88 -92.16,0 -166.87,-74.71 -166.87,-166.88 0,-92.16 74.71,-166.87 166.87,-166.87z"/>
    <path class="fil9" d="M7203.51 11064.69c190.4,0 344.76,154.35 344.76,344.76 0,190.4 -154.36,344.75 -344.76,344.75 -190.4,0 -344.75,-154.35 -344.75,-344.75 0,-134.24 76.73,-250.56 188.72,-307.5l0 -440.79c-1.78,0.06 -3.56,0.1 -5.34,0.1 -92.17,0 -166.88,-74.72 -166.88,-166.88 0,-92.17 74.71,-166.88 166.88,-166.88 92.16,0 166.87,74.71 166.87,166.88 0,27.05 -6.44,52.58 -17.86,75.18l0 495.38c4.11,-0.15 8.22,-0.25 12.36,-0.25z"/>
    <path class="fil9" d="M21874.41 8208.82c66.23,0 119.92,53.69 119.92,119.92 0,66.23 -53.69,119.91 -119.92,119.91 -66.23,0 -119.92,-53.68 -119.92,-119.91 0,-66.23 53.69,-119.92 119.92,-119.92z"/>
    <path class="fil9" d="M21794.83 9275.95c66.23,0 119.92,53.69 119.92,119.92 0,66.22 -53.69,119.91 -119.92,119.91 -66.23,0 -119.92,-53.69 -119.92,-119.91 0,-66.23 53.69,-119.92 119.92,-119.92z"/>
    <path class="fil9" d="M22745.04 9598.24c57.29,16.54 99.19,69.36 99.19,131.98 0,75.85 -61.49,137.35 -137.35,137.35 -75.86,0 -137.35,-61.5 -137.35,-137.35 0,-48.5 25.14,-91.13 63.09,-115.57l0 -1277.09c-31.25,-18.4 -52.22,-52.39 -52.22,-91.28 0,-38.89 20.97,-72.88 52.22,-91.28l0 -472.03 112.42 0 0 475.24c28.4,18.99 47.1,51.34 47.1,88.07 0,36.72 -18.7,69.08 -47.1,88.07l0 440.92 360.66 0 0 133.82 -360.66 0 0 689.15z"/>
    <polygon class="fil9" points="7194.52,6731.89 7331.99,6731.89 7331.99,7820.79 7194.52,7820.79 "/>
    <path class="fil9" d="M7661.19 6446.23l0 1219 -137.47 0 0 -1219c-24.26,-19.89 -39.75,-50.1 -39.75,-83.93 0,-59.91 48.57,-108.48 108.49,-108.48 59.91,0 108.48,48.57 108.48,108.48 0,33.83 -15.48,64.04 -39.75,83.93z"/>
    <polygon class="fil9" points="7831.22,6294.16 7983.16,6294.16 7983.16,7278.15 7831.22,7278.15 "/>
    <path class="fil9" d="M8358.29 7207.26l0 -1152.61 -137.47 0 0 1152.6c-24.26,19.9 -39.75,50.11 -39.75,83.94 0,59.91 48.57,108.48 108.49,108.48 59.91,0 108.48,-48.57 108.48,-108.48 0,-33.83 -15.48,-64.04 -39.75,-83.93z"/>
    <path class="fil13" d="M10108.34 6352c118.41,13.54 225.12,65.57 307.33,143.26l219.28 -183.44 82.5 98.62 -219.51 183.63c50.02,77.19 80.77,168.02 85.44,265.7l240.85 0 0 -912.81 88.09 0 0 912.81 18.05 0 0 128.57 -356.13 0c-15.29,79.1 -47.93,152.02 -93.79,214.65l222.48 231.8 -92.76 89.03 -217.64 -226.75c-78.66,66.24 -176.59,110.33 -284.19,122.64l0 271.44 -128.57 0 0 -272.06c-93.84,-11.65 -180.16,-47.51 -252.56,-101.11l-226.64 189.6 -82.5 -98.62 215.08 -179.92c-56.57,-68.08 -96.65,-150.36 -114.1,-240.7l-350.37 0 0 -128.57 341.23 0c5.15,-107.67 42,-207.01 101.4,-288.95l-178.72 -186.21 92.76 -89.03 173.45 180.72c77.73,-66.1 174.52,-110.46 280.97,-123.68l0 -279.5 128.57 0 0 278.88zm-61.69 145.08c214.71,0 388.77,174.06 388.77,388.77 0,214.72 -174.06,388.78 -388.77,388.78 -214.72,0 -388.77,-174.06 -388.77,-388.78 0,-214.71 174.05,-388.77 388.77,-388.77z"/>
    <g>
     <path class="fil13" d="M12893.49 3561.59c130.32,0 235.96,105.64 235.96,235.96 0,130.31 -105.64,235.95 -235.96,235.95 -130.31,0 -235.95,-105.64 -235.95,-235.95 0,-130.32 105.64,-235.96 235.95,-235.96z"/>
     <polygon class="fil9" points="12825.22,4023.47 12951.62,4023.47 12951.62,4547.98 12825.22,4547.98 "/>
    </g>
    <g>
     <path class="fil10" d="M11275.56 2513.41c348.84,0 631.63,282.79 631.63,631.64 0,316.48 -232.76,578.58 -536.43,624.49l-145.54 5.14c-325.31,-25.65 -581.3,-289.27 -581.3,-629.63 0,-340.37 282.8,-631.64 631.64,-631.64zm0 343.54c159.11,0 288.09,128.98 288.09,288.1 0,159.11 -128.98,288.09 -288.09,288.09 -159.12,0 -288.1,-128.98 -288.1,-288.09 0,-159.12 128.98,-288.1 288.1,-288.1z"/>
     <polygon class="fil9" points="11225.22,3774.68 11372.02,3774.68 11372.02,6919.37 11225.22,6919.37 "/>
    </g>
    <polygon class="fil9" points="16433.84,4310.08 16543.9,4310.08 16543.9,5009.8 16433.84,5009.8 "/>
    <path class="fil9 str0" d="M17470.35 5792.58l683.2 0c19.51,-21.46 47.66,-34.93 78.95,-34.93 31.29,0 59.43,13.47 78.95,34.93l20.24 0 0 32.38c4.85,12.19 7.51,25.48 7.51,39.4 0,13.91 -2.66,27.21 -7.51,39.39l0 32.38 -20.24 0c-19.52,21.46 -47.66,34.93 -78.95,34.93 -31.29,0 -59.44,-13.47 -78.96,-34.93l-683.19 0 0 -143.55z"/>
    <path class="fil9" d="M17063.87 6259.54l2478.78 -6.3 562.89 -698.54c67.41,-83.65 75.97,-75.97 -110.78,-279.6 -186.76,-203.64 -560.27,-610.92 -744.91,-817.72 -184.65,-206.8 -180.43,-213.13 -166.71,-218.41 13.71,-5.27 36.93,-9.49 58.03,-5.27 21.1,4.22 40.09,16.88 80.19,50.64 40.09,33.77 101.29,88.63 198.36,181.48 97.07,92.85 230.02,223.69 395.67,397.78 165.65,174.09 364.01,391.45 463.19,500.12 99.18,108.68 87.38,98.15 17.94,187.82l-649.13 838.26 -2583.52 0 0 -130.26z"/>
    <polygon class="fil9" points="17157.95,6776.96 20244.42,6776.96 20244.42,6907.23 17157.95,6907.23 "/>
    <polygon class="fil9" points="17183.28,7272.68 20269.74,7272.68 20269.74,7402.95 17183.28,7402.95 "/>
    <polygon class="fil9" points="17078.34,7790.12 20291.48,7790.12 20291.48,7920.38 18838.69,7920.38 18838.69,8372.68 19223.3,8372.68 19223.3,8502.95 18838.69,8502.95 18838.69,8824.33 18708.42,8824.33 18708.42,8502.95 16882.77,8502.95 16882.77,8372.68 18708.42,8372.68 18708.42,7920.38 17078.34,7920.38 "/>
    <polygon class="fil9" points="14225.07,2897.35 14083.66,2897.35 14083.66,4300.26 14225.07,4300.26 "/>
    <polygon class="fil9" points="14762.13,2897.35 14620.72,2897.35 14620.72,4300.26 14762.13,4300.26 "/>
    <polygon class="fil9" points="9297.28,8354.3 11923.15,8354.3 11923.15,8470.82 9297.28,8470.82 "/>
    <polygon class="fil9" points="9222.37,8857.84 12285.2,8857.84 12285.2,8974.36 9222.37,8974.36 "/>
    <path class="fil9" d="M10083.95 10260.06l1459.82 0 0 -342.91 -1679.2 0c-61.37,65.35 -185.05,187.7 -467.51,460.07 -287.13,276.88 -738.34,708.78 -1009.79,965.75 -271.45,256.97 -363.14,339.01 -418.03,385.46 -54.89,46.45 -72.99,57.31 -88.67,62.13 -15.69,4.83 -28.96,3.62 -41.63,-5.43 -12.66,-9.05 -24.73,-25.94 -22.92,-45.84 1.81,-19.91 17.5,-42.83 86.26,-109.18 68.77,-66.36 190.62,-176.14 348.66,-326.95 158.05,-150.81 352.28,-342.63 577.28,-561.6 225.01,-218.97 480.77,-465.08 626.75,-606.84 41.79,-40.58 296.65,-318.51 337.05,-334.1l1751.75 0 0 -347.69 -1896.85 0c-34.49,32.63 -98.25,88.02 -185.92,174.49 -88.07,86.86 -200.27,205.09 -276.88,284.11 -76.6,79.02 -117.62,118.84 -159.85,141.16 -42.22,22.31 -85.66,27.14 -114.01,24.12 -28.35,-3.01 -41.62,-13.87 -42.22,-34.98 -0.61,-21.12 11.46,-52.48 50.67,-100.14 39.21,-47.65 105.56,-111.59 193.63,-193.63 88.07,-82.04 197.86,-182.17 283.51,-253.8 77.86,-65.09 135.77,-106.64 176.02,-129.85l0 -28 3268.47 0 0 116.52 -1172.05 0 0 347.69 1392.19 0 0 116.53 -1392.19 0 0 342.91 1243.84 0 0 116.52 -17.83 0 0 2167.66c139.42,29.47 244.06,153.2 244.06,301.39 0,170.15 -137.93,308.08 -308.07,308.08 -170.15,0 -308.08,-137.93 -308.08,-308.08 0,-152.24 110.44,-278.67 255.57,-303.59l0 -2165.46 -1109.49 0 0 206.18c48.59,20.61 82.68,68.76 82.68,124.86 0,74.88 -60.69,135.57 -135.57,135.57 -74.87,0 -135.56,-60.69 -135.56,-135.57 0,-48.57 25.55,-91.17 63.93,-115.1l0 -215.94 -1438.24 0c-4.3,2.29 -8.57,4.64 -12.77,7.03 -49.95,28.44 -91.09,63.92 -219.88,187.8 -128.8,123.88 -345.24,336.16 -547.81,536.64 -202.57,200.49 -391.26,389.19 -591.75,582.74 -200.49,193.55 -412.77,391.96 -521.68,502.26 -108.92,110.3 -114.47,132.5 -117.78,163.02 -3.31,30.52 -4.39,69.35 5.33,106.81l0.41 1.58c185.22,5.92 333.55,157.91 333.55,344.56 0,190.4 -154.35,344.75 -344.75,344.75 -190.41,0 -344.76,-154.35 -344.76,-344.75 0,-151.9 98.24,-280.85 234.64,-326.79 -9.04,-54.67 -9.33,-129.73 -5.28,-175.41 4.85,-54.81 15.95,-67.29 33.29,-87.41 17.35,-20.12 40.93,-47.87 122.1,-126.95 81.17,-79.09 219.91,-209.51 407.22,-396.12 187.31,-186.62 423.17,-429.42 620.19,-625.75 197.02,-196.32 355.19,-346.17 486.31,-472.43 131.11,-126.26 235.17,-228.93 304.3,-281.35 64.05,-48.56 98.12,-54 137.54,-55.39l0 -1.36z"/>
    <path class="fil0" d="M14096.42 5146.32c1172.17,-168.23 2120.86,667.48 2251.21,1662.47 155.58,1187.48 -642.09,2111.21 -1647.66,2258.93 -1159.79,170.37 -2102.09,-692.31 -2259.05,-1661 -188.08,-1160.76 675.2,-2119.7 1655.5,-2260.4zm57.71 4399.83c873.52,110.7 1258.91,-249.83 1697.88,-435.51 83.46,37.64 196.23,150.07 259.01,200.67 95.5,76.98 169.55,137.25 281.21,205.58l-39.1 189.58c89.01,113.53 474.9,427.76 615.9,567.07l1198.25 1247.61c53.53,66.9 203.16,247.44 324.46,276.67 383.82,92.5 653.84,-315.45 479.65,-619.41l-1825.56 -1814.97c-226.69,-250.4 -21.46,-193.04 -397.02,-165.56 -4.51,-4.08 -415.59,-446.63 -419.9,-528.71 -5.68,-108.2 788.39,-909.55 400.75,-2284.38 -578.21,-2050.71 -3342.47,-2417.61 -4464.17,-482.68 -358.23,617.95 -386.54,1273.5 -188.98,1981.04 252.79,905.35 1182.21,1549.52 2077.62,1663z"/>
    <path class="fil14" d="M14352.84 5413.84c924.66,0 1674.24,749.58 1674.24,1674.23 0,924.65 -749.58,1674.23 -1674.24,1674.23 -924.65,0 -1674.23,-749.58 -1674.23,-1674.23 0,-924.65 749.58,-1674.23 1674.23,-1674.23zm-1176.31 1514.11c150.17,0 271.92,121.74 271.92,271.92 0,150.18 -121.75,271.92 -271.92,271.92 -150.18,0 -271.93,-121.74 -271.93,-271.92 0,-150.18 121.75,-271.92 271.93,-271.92zm586.22 -1050c-81.37,36.7 -178.69,92.54 -264.84,158.75 -86.16,66.21 -161.14,142.79 -221.77,226.55 -60.63,83.76 -106.89,174.7 -130.03,248.89 -23.13,74.19 -23.13,131.62 -21.54,165.92 1.6,34.31 4.79,45.47 48.67,70.2 43.87,24.73 128.43,63.02 183.47,88.55 55.04,25.53 80.57,38.29 107.69,41.48 27.12,3.19 55.84,-3.19 85.36,-23.93 29.51,-20.74 59.83,-55.84 94.13,-98.92 34.3,-43.07 72.59,-94.13 118.86,-144.38 46.26,-50.26 100.51,-99.72 155.55,-147.58 55.04,-47.87 110.89,-94.13 160.34,-124.45 49.46,-30.31 92.54,-44.67 142,-56.63 49.45,-11.97 105.3,-21.54 143.59,-28.72 38.29,-7.18 59.03,-11.97 74.18,-21.54 15.16,-9.57 24.73,-23.93 32.71,-47.07 7.98,-23.13 14.36,-55.04 17.55,-97.32 3.19,-42.28 3.19,-94.93 -3.19,-137.21 -6.38,-42.27 -19.15,-74.18 -38.29,-99.71 -19.15,-25.53 -44.67,-44.67 -80.57,-58.23 -35.9,-13.56 -82.16,-21.54 -121.25,-24.73 -39.09,-3.19 -71,-1.6 -114.88,5.58 -43.87,7.18 -99.71,19.94 -160.34,35.1 -60.62,15.16 -126.04,32.71 -207.4,69.4z"/>
    <polygon class="fil9" points="19789.07,12384.57 22864.89,12384.57 22864.89,12492.78 19789.07,12492.78 "/>
    <polygon class="fil9" points="19789.07,12813.27 22864.89,12813.27 22864.89,12921.48 19789.07,12921.48 "/>
    <polygon class="fil9" points="19789.07,13212.83 22864.89,13212.83 22864.89,13321.05 19789.07,13321.05 "/>
    <path class="fil9" d="M12271.77 1876.98c215.03,0 389.34,174.31 389.34,389.33 0,190.14 -136.31,348.42 -316.53,382.51l0 2355.49 -113.95 0 0 -2350.82c-195.68,-20.56 -348.19,-186.05 -348.19,-387.18 0,-215.02 174.31,-389.33 389.33,-389.33z"/>
    <path class="fil9 str0" d="M22363.22 10276.76l-148.67 0 0 -1371.02 -556.11 0 0 -132.15 556.11 0 0 -370.97 -3.14 0 0 -76.7c-24.72,-21.97 -40.29,-53.99 -40.29,-89.66 0,-35.67 15.57,-67.69 40.29,-89.66l0 -373.63 151.81 0 0 367.53c28.99,21.89 47.73,56.63 47.73,95.76 0,39.13 -18.74,73.87 -47.73,95.76l0 70.6 0 1874.14z"/>
    <path class="fil15" d="M18787.1 9296.73c72.91,0 132.02,59.11 132.02,132.02 0,72.91 -59.11,132.02 -132.02,132.02 -72.92,0 -132.03,-59.11 -132.03,-132.02 0,-72.91 59.11,-132.02 132.03,-132.02z"/>
    <path class="fil9" d="M22314.66 11922.9c38.08,0 68.94,30.86 68.94,68.94 0,38.07 -30.86,68.94 -68.94,68.94 -38.07,0 -68.94,-30.87 -68.94,-68.94 0,-38.08 30.87,-68.94 68.94,-68.94z"/>
    <path class="fil9 str0" d="M19585.85 3184.14c140.89,133.78 400.48,366.99 537.92,484.3 137.43,117.3 152.7,118.69 169.36,111.06 16.66,-7.64 34.7,-24.3 35.4,-44.43 0.69,-20.13 -15.97,-43.73 -105.51,-127.02 -89.53,-83.29 -251.96,-226.28 -389.39,-342.19 -98.44,-83.03 -184.06,-152.17 -249.72,-200.47 -11.96,26.15 -29.34,49.29 -50.71,67.99 15.38,15.11 32.84,31.95 52.65,50.76z"/>
   </g>
  </g>
 </g>
</svg>
